<svg xmlns="http://www.w3.org/2000/svg" width="120" viewBox="0 0 112.34 36.75"><defs><style>.cls-1{fill:#ccc;}.cls-2{fill:#999;}</style></defs><title>app-store</title><g id="Capa_2" data-name="Capa 2"><g id="Layer_2" data-name="Layer 2"><path class="cls-1" d="M5,0h102.4a5,5,0,0,1,5,5V31.78a5,5,0,0,1-5,5H5a5,5,0,0,1-5-5V5A5,5,0,0,1,5,0Z"/><path class="cls-2" d="M19.4,6.28H10.25a2,2,0,0,0-2,2V28.54a2,2,0,0,0,2,2H19.4a2,2,0,0,0,2-2V8.27A2,2,0,0,0,19.4,6.28ZM14.83,29.07a1.32,1.32,0,1,1,1.32-1.32A1.33,1.33,0,0,1,14.83,29.07Zm5-3.29h-10V10.83h10Z"/><path class="cls-2" d="M28.88,9.9l-.55,1.68h-.72l1.82-5.35h.83l1.83,5.35h-.74L30.78,9.9Zm1.76-.54-.53-1.54a9.16,9.16,0,0,1-.27-1h0c-.07.31-.16.64-.26,1L29,9.36Z"/><path class="cls-2" d="M32.81,7.74l.75,2.15c.13.36.23.68.31,1h0c.08-.31.19-.63.32-1L35,7.74h.73l-1.51,3.84h-.67L32.06,7.74Z"/><path class="cls-2" d="M38.92,10.66a6.46,6.46,0,0,0,0,.92h-.62l-.07-.48h0a1.44,1.44,0,0,1-1.18.57,1.09,1.09,0,0,1-1.17-1.1c0-.93.82-1.44,2.31-1.44V9.06a.79.79,0,0,0-.87-.89,1.86,1.86,0,0,0-1,.28L36.18,8a2.44,2.44,0,0,1,1.27-.33c1.18,0,1.47.8,1.47,1.57Zm-.69-1c-.76,0-1.62.12-1.62.87a.61.61,0,0,0,.65.66,1,1,0,0,0,.94-.64.56.56,0,0,0,0-.22Z"/><path class="cls-2" d="M40.33,7a.43.43,0,0,1-.43-.45.44.44,0,0,1,.45-.45.43.43,0,0,1,.44.45.44.44,0,0,1-.45.45ZM40,11.58V7.74h.7v3.84Z"/><path class="cls-2" d="M41.82,5.94h.7v5.64h-.7Z"/><path class="cls-2" d="M46.35,10.66a6.46,6.46,0,0,0,0,.92h-.63l-.06-.48h0a1.44,1.44,0,0,1-1.18.57,1.09,1.09,0,0,1-1.17-1.1c0-.93.82-1.44,2.31-1.44V9.06a.79.79,0,0,0-.88-.89,1.83,1.83,0,0,0-1,.28L43.61,8a2.44,2.44,0,0,1,1.27-.33c1.18,0,1.47.8,1.47,1.57Zm-.69-1c-.76,0-1.63.12-1.63.87a.61.61,0,0,0,.66.66,1,1,0,0,0,.94-.64.56.56,0,0,0,0-.22Z"/><path class="cls-2" d="M47.43,5.94h.7V8.35h0a1.43,1.43,0,0,1,1.31-.7c1,0,1.62.79,1.62,1.95a1.83,1.83,0,0,1-1.73,2.07A1.38,1.38,0,0,1,48.06,11h0l0,.63h-.6c0-.26,0-.65,0-1Zm.7,4.1a1,1,0,0,0,0,.25,1.09,1.09,0,0,0,1.05.82c.74,0,1.17-.59,1.17-1.47S50,8.2,49.22,8.2a1.1,1.1,0,0,0-1,.86.85.85,0,0,0,0,.29Z"/><path class="cls-2" d="M51.91,5.94h.7v5.64h-.7Z"/><path class="cls-2" d="M54.12,9.78a1.23,1.23,0,0,0,1.32,1.33,2.5,2.5,0,0,0,1.06-.19l.13.49a3,3,0,0,1-1.29.25,1.79,1.79,0,0,1-1.89-1.94,1.87,1.87,0,0,1,1.81-2.08,1.62,1.62,0,0,1,1.58,1.81,2.68,2.68,0,0,1,0,.34Zm2.05-.5a1,1,0,0,0-1-1.14,1.16,1.16,0,0,0-1.07,1.14Z"/><path class="cls-2" d="M60.88,11.67a1.84,1.84,0,0,1-1.85-2,1.88,1.88,0,0,1,1.91-2,1.81,1.81,0,0,1,1.85,2,1.88,1.88,0,0,1-1.9,2.05Zm0-.52c.67,0,1.17-.63,1.17-1.51,0-.65-.33-1.47-1.15-1.47s-1.18.77-1.18,1.5.48,1.48,1.15,1.48Z"/><path class="cls-2" d="M63.64,8.78c0-.41,0-.73,0-1h.62l0,.62h0a1.43,1.43,0,0,1,1.27-.71c.53,0,1.36.32,1.36,1.64v2.29h-.7V9.36c0-.61-.23-1.14-.89-1.14a1,1,0,0,0-1,1v2.32h-.69Z"/><path class="cls-2" d="M70.49,6.81v.93h1v.53h-1v2.07c0,.48.14.75.53.75a1.3,1.3,0,0,0,.4-.05l0,.53a1.8,1.8,0,0,1-.62.1,1,1,0,0,1-.75-.29,1.52,1.52,0,0,1-.27-1V8.27h-.6V7.74h.6V7Z"/><path class="cls-2" d="M72.24,5.94h.7v2.4h0a1.27,1.27,0,0,1,.51-.49,1.31,1.31,0,0,1,.71-.2c.52,0,1.34.32,1.34,1.64v2.29h-.7V9.37c0-.62-.23-1.14-.89-1.14a1,1,0,0,0-.93.7.82.82,0,0,0,0,.33v2.32h-.7Z"/><path class="cls-2" d="M77,9.78a1.22,1.22,0,0,0,1.31,1.33,2.5,2.5,0,0,0,1.06-.19l.13.49a3,3,0,0,1-1.29.25,1.8,1.8,0,0,1-1.89-1.94,1.87,1.87,0,0,1,1.81-2.08,1.62,1.62,0,0,1,1.58,1.81,1.57,1.57,0,0,1,0,.34Zm2-.5a1,1,0,0,0-1-1.14A1.16,1.16,0,0,0,77,9.28Z"/><path class="cls-2" d="M82.53,7A.45.45,0,1,1,83,6.58a.44.44,0,0,1-.46.45Zm-.34,4.55V7.74h.7v3.84Z"/><path class="cls-2" d="M84,6.3a6.6,6.6,0,0,1,1.33-.11,2.24,2.24,0,0,1,1.5.44,1.47,1.47,0,0,1,.47,1.12,1.55,1.55,0,0,1-.42,1.15,2.2,2.2,0,0,1-1.63.58,2.42,2.42,0,0,1-.56,0v2.14H84Zm.69,2.57a2.32,2.32,0,0,0,.57.06c.84,0,1.34-.42,1.34-1.14s-.5-1-1.26-1a4,4,0,0,0-.65,0Z"/><path class="cls-2" d="M88.16,5.94h.7v2.4h0a1.18,1.18,0,0,1,.5-.49,1.31,1.31,0,0,1,.71-.2c.52,0,1.35.32,1.35,1.64v2.29h-.7V9.37c0-.62-.23-1.14-.89-1.14a1,1,0,0,0-.94.7.82.82,0,0,0,0,.33v2.32h-.7Z"/><path class="cls-2" d="M94.1,11.67a1.83,1.83,0,0,1-1.85-2,1.88,1.88,0,0,1,1.91-2,1.81,1.81,0,0,1,1.85,2,1.88,1.88,0,0,1-1.9,2.05Zm0-.52c.67,0,1.17-.63,1.17-1.51,0-.65-.33-1.47-1.15-1.47S93,8.94,93,9.67s.48,1.48,1.15,1.48Z"/><path class="cls-2" d="M96.85,8.78c0-.41,0-.73,0-1h.62l0,.62h0a1.43,1.43,0,0,1,1.27-.71c.53,0,1.36.32,1.36,1.64v2.29h-.7V9.36c0-.61-.23-1.14-.89-1.14a1,1,0,0,0-1,1v2.32h-.7Z"/><path class="cls-2" d="M101.62,9.78a1.23,1.23,0,0,0,1.31,1.33,2.59,2.59,0,0,0,1.07-.19l.12.49a2.93,2.93,0,0,1-1.28.25A1.79,1.79,0,0,1,101,9.72a1.87,1.87,0,0,1,1.81-2.08,1.63,1.63,0,0,1,1.58,1.81,2.68,2.68,0,0,1,0,.34Zm2-.5a1,1,0,0,0-1-1.14,1.16,1.16,0,0,0-1.07,1.14Z"/><path class="cls-2" d="M32.17,15.21,27.46,29.08h2.16L31,24.82h4.56L37,29.08h2.21L34.52,15.21Zm1.12,2.28c.16.62.33,1.26.55,2l1.27,3.67H31.5l1.25-3.7C32.94,18.82,33.12,18.17,33.29,17.49Z"/><path class="cls-2" d="M45.35,18.8A4,4,0,0,0,42,20.4L41.93,19H40v.17c.06.86.08,1.81.08,3.16V33.05h2.1v-5a3.71,3.71,0,0,0,2.87,1.23A4.35,4.35,0,0,0,48.25,28a5.73,5.73,0,0,0,1.4-4,5.55,5.55,0,0,0-1.22-3.68A4,4,0,0,0,45.35,18.8Zm-.52,1.74c1.87,0,2.7,1.73,2.7,3.45,0,2.22-1.06,3.59-2.78,3.59a2.55,2.55,0,0,1-2.48-1.95A3.06,3.06,0,0,1,42.2,25V23.27a2.58,2.58,0,0,1,.07-.52l0-.17A2.66,2.66,0,0,1,44.83,20.54Z"/><path class="cls-2" d="M56.15,18.8a3.93,3.93,0,0,0-3.33,1.6L52.73,19H50.82v.17c.05.86.08,1.81.08,3.16V33.05H53v-5a3.71,3.71,0,0,0,2.86,1.23A4.32,4.32,0,0,0,59.05,28a5.74,5.74,0,0,0,1.41-4,5.61,5.61,0,0,0-1.22-3.68A4,4,0,0,0,56.15,18.8Zm-.52,1.74c1.87,0,2.71,1.73,2.71,3.45,0,2.22-1.07,3.59-2.79,3.59A2.55,2.55,0,0,1,53,25V23.27a3.32,3.32,0,0,1,.06-.52l0-.17A2.66,2.66,0,0,1,55.63,20.54Z"/><path class="cls-2" d="M69.69,21.09c-2-.76-2.59-1.36-2.59-2.46,0-.93.74-1.86,2.39-1.86a4.82,4.82,0,0,1,2.46.61l.18.11.59-1.75-.12-.07a6.14,6.14,0,0,0-3-.68C66.87,15,65,16.57,65,18.83c0,1.82,1.18,3.1,3.69,4,1.78.67,2.44,1.35,2.44,2.52,0,1.32-1,2.14-2.67,2.14a5.69,5.69,0,0,1-3-.86l-.18-.11-.57,1.79.11.07a7.15,7.15,0,0,0,3.54.91c3.61,0,4.89-2.2,4.89-4.08S72.2,22.08,69.69,21.09Z"/><path class="cls-2" d="M77,16.64,75,17.28V19H73.44V20.7H75v5.14a4,4,0,0,0,.72,2.66,2.67,2.67,0,0,0,2,.8,5.1,5.1,0,0,0,1.63-.25l.11,0-.1-1.68-.2.06a3.19,3.19,0,0,1-1,.11C77.35,27.5,77,27,77,25.78V20.7h2.53V19H77Z"/><path class="cls-2" d="M84.74,18.8c-2.94,0-5,2.2-5,5.33s2,5.17,4.83,5.17h0a4.94,4.94,0,0,0,5-5.35,5.28,5.28,0,0,0-1.34-3.71A4.66,4.66,0,0,0,84.74,18.8Zm-.06,1.66c1.88,0,2.74,1.84,2.74,3.55,0,2.11-1.17,3.63-2.78,3.63h0c-1.6,0-2.75-1.5-2.75-3.57C81.87,22.28,82.74,20.46,84.68,20.46Z"/><path class="cls-2" d="M96,18.9l-.13,0a1.81,1.81,0,0,0-.52-.07,3,3,0,0,0-2.63,1.69L92.67,19H90.79v.17c0,.83.08,1.76.08,3l0,6.86H93V23.73a6.64,6.64,0,0,1,.05-.81,2.33,2.33,0,0,1,2.21-2.12,4.6,4.6,0,0,1,.56,0l.23,0Z"/><path class="cls-2" d="M100.73,18.78C97.93,18.78,96,21,96,24.21a4.69,4.69,0,0,0,5,5.07,8,8,0,0,0,3.32-.64l.12-.06L104,27l-.17.07a6.57,6.57,0,0,1-2.63.47,2.92,2.92,0,0,1-3.15-3l6.78,0,0-.13a4.09,4.09,0,0,0,.07-.88C104.89,21.34,103.8,18.78,100.73,18.78Zm-.14,1.6a2.08,2.08,0,0,1,1.54.59,3,3,0,0,1,.72,2H98.06A2.69,2.69,0,0,1,100.59,20.38Z"/></g></g></svg>