<svg xmlns="http://www.w3.org/2000/svg" viewBox="0 0 682 405.85"><defs><style>.cls-1{fill:none;stroke:#e6e6e6;stroke-linecap:round;stroke-miterlimit:10;stroke-width:4px;stroke-dasharray:8 10;}.cls-2{fill:#e6e6e6;}</style></defs><title>background-section-5</title><g id="Capa_2" data-name="Capa 2"><g id="Layer_2" data-name="Layer 2"><path class="cls-1" d="M2,164.85c296-42,510,34,678,239"/><path class="cls-2" d="M180.11,53c3.88-3.87,2.68-11.69-4-11.69H158.36c.67-3.75,1.65-10,1.61-10.55-.37-5.56-3.91-12.32-4.07-12.6-.64-1.2-3.91-2.83-7.19-2.13-4.24.91-4.68,3.61-4.66,4.36,0,0,.18,7.41.2,9.38-2,4.46-9,16.17-11.15,17.08a3.19,3.19,0,0,0-1.68-.48H109.06a3.43,3.43,0,0,0-3.43,3.43V80.7a3.25,3.25,0,0,0,3.22,3h20.09a3.23,3.23,0,0,0,3.23-3.23v-1a2.43,2.43,0,0,1,1.09.16,9.14,9.14,0,0,0,5,1.86h30c11.21,0,10-10,9-11.31,1.89-2.06,3.06-5.7,1.47-8.57C179.88,60.26,182,56.68,180.11,53ZM128.25,80.44h-19.4V49.59h19.4Zm46.63-27.73-.18.77c5.16,1.47,2.41,7.42-1.29,7.81l-.18.76c5,1.26,2.59,7.39-1.29,7.81l-.19.76c4.05.66,3.07,7.56-3.06,7.56l-30.49,0c-2.16,0-4.12-2.46-5.7-2.46h-1.38V52a46.86,46.86,0,0,0,5-3.45c2.23-1.9,11.33-16.61,11.33-18.45s-.2-9.8-.2-9.8S149,18,153,19.67c0,0,3.35,6.28,3.69,11.3,0,0-1.51,10.32-2.32,13.56h21.14C180.74,44.53,179.75,52,174.88,52.71Z"/><path class="cls-2" d="M184.46,0H103.09A26.33,26.33,0,0,0,87.31,5.2a2,2,0,0,0,2.4,3.24A22.36,22.36,0,0,1,103.09,4h81.37A22.54,22.54,0,0,1,207,26.54V79.91a22.53,22.53,0,0,1-22.51,22.5H150.07a3,3,0,0,0-2.2,1l-27.62,29.37a1.36,1.36,0,0,1-1.56.35,1.38,1.38,0,0,1-.9-1.32V105.43a3,3,0,0,0-3-3H103.09a22.52,22.52,0,0,1-22.5-22.5V26.54a22.38,22.38,0,0,1,3.93-12.71,2,2,0,1,0-3.33-2.28,26.4,26.4,0,0,0-4.64,15V79.91a26.57,26.57,0,0,0,26.54,26.53h10.67v25.32a5.43,5.43,0,0,0,3.44,5.07,5.53,5.53,0,0,0,2,.39,5.42,5.42,0,0,0,4-1.72l27.33-29.06h34A26.56,26.56,0,0,0,211,79.91V26.54A26.56,26.56,0,0,0,184.46,0Z"/></g></g></svg>