<svg xmlns="http://www.w3.org/2000/svg" width="133.203" height="170.203" viewBox="0 0 137.518 170.203">
  <g id="Grupo_9" data-name="Grupo 9" transform="translate(-3301.613 -445.05)">
    <g id="Grupo_8" data-name="Grupo 8">
      <g id="Grupo_7" data-name="Grupo 7">
        <g id="Grupo_6" data-name="Grupo 6">
          <g id="Grupo_5" data-name="Grupo 5">
            <g id="Grupo_4" data-name="Grupo 4">
              <path id="Trazado_2" data-name="Trazado 2" d="M3420.474,445.05h-82.542a18.707,18.707,0,0,0-18.655,18.489,18.665,18.665,0,0,0-17.664,18.655V596.6a18.741,18.741,0,0,0,18.655,18.655h82.542a18.708,18.708,0,0,0,18.655-18.49,18.664,18.664,0,0,0,17.664-18.654V463.869A18.567,18.567,0,0,0,3420.474,445.05ZM3415.357,596.6a12.541,12.541,0,0,1-12.547,12.547h-82.542a12.365,12.365,0,0,1-12.382-12.382V482.194a12.365,12.365,0,0,1,12.382-12.382h66.694v28.725a3.135,3.135,0,0,0,3.137,3.137h25.258V596.6Zm-22.122-101.2V474.765L3411.56,495.4Zm28.395,95.254V498.537c0-.33-.165-.825-.165-1.155a.58.58,0,0,0-.165-.331c-.165-.165-.165-.33-.33-.495l-28.56-32.026a3.6,3.6,0,0,0-.825-.5c-.165,0-.165-.165-.331-.165a3.108,3.108,0,0,0-1.32-.33H3325.55a12.438,12.438,0,0,1,12.382-12.216h82.543a12.365,12.365,0,0,1,12.381,12.381v114.57h.165A12.539,12.539,0,0,1,3421.63,590.655Z" fill="#e3e3e3"/>
              <path id="Trazado_3" data-name="Trazado 3" d="M3324.064,501.674h27.57a3.137,3.137,0,0,0,0-6.273h-27.57a3.134,3.134,0,0,0-3.136,3.136A3.036,3.036,0,0,0,3324.064,501.674Z" fill="#e3e3e3"/>
              <path id="Trazado_4" data-name="Trazado 4" d="M3351.468,577.448h-27.4a3.137,3.137,0,0,0,0,6.273h27.57a3.133,3.133,0,0,0,3.136-3.136A3.4,3.4,0,0,0,3351.468,577.448Z" fill="#e3e3e3"/>
              <path id="Trazado_5" data-name="Trazado 5" d="M3320.928,519.338a3.135,3.135,0,0,0,3.136,3.137h73.629a3.135,3.135,0,0,0,3.136-3.137,3.247,3.247,0,0,0-3.136-3.136h-73.629A3.134,3.134,0,0,0,3320.928,519.338Z" fill="#e3e3e3"/>
              <path id="Trazado_6" data-name="Trazado 6" d="M3397.693,531.555h-73.629a3.137,3.137,0,0,0,0,6.273h73.629a3.135,3.135,0,0,0,3.136-3.137A3.247,3.247,0,0,0,3397.693,531.555Z" fill="#e3e3e3"/>
              <path id="Trazado_7" data-name="Trazado 7" d="M3397.693,547.073h-73.629a3.137,3.137,0,0,0,0,6.273h73.629a3.137,3.137,0,0,0,0-6.273Z" fill="#e3e3e3"/>
              <path id="Trazado_8" data-name="Trazado 8" d="M3397.693,562.425h-73.629a3.137,3.137,0,0,0,0,6.274h73.629a3.137,3.137,0,0,0,0-6.274Z" fill="#e3e3e3"/>
            </g>
          </g>
        </g>
      </g>
    </g>
  </g>
</svg>
