<svg xmlns="http://www.w3.org/2000/svg" width="120" viewBox="0 0 112.34 36.75"><defs><style>.cls-1{fill:#ccc;}.cls-2{fill:#999;}</style></defs><title>google-play</title><g id="Capa_2" data-name="Capa 2"><g id="Layer_2" data-name="Layer 2"><path class="cls-1" d="M5,0h102.4a5,5,0,0,1,5,5V31.78a5,5,0,0,1-5,5H5a5,5,0,0,1-5-5V5A5,5,0,0,1,5,0Z"/><path class="cls-2" d="M87.43,24.38a3.21,3.21,0,0,1-1.3-.26,2.5,2.5,0,0,1-1-.8h-.08a8.43,8.43,0,0,1,.08,1.2v3H84.06V17H85l.15,1h.05a2.67,2.67,0,0,1,1-.86,3.06,3.06,0,0,1,1.29-.26,2.68,2.68,0,0,1,2.22,1,4.36,4.36,0,0,1,.78,2.76,4.35,4.35,0,0,1-.79,2.77A2.69,2.69,0,0,1,87.43,24.38Zm-.16-6.57a2,2,0,0,0-1.61.62,3.14,3.14,0,0,0-.51,1.95v.24a3.64,3.64,0,0,0,.51,2.19,2,2,0,0,0,1.63.65,1.68,1.68,0,0,0,1.47-.76,3.53,3.53,0,0,0,.53-2.09,3.46,3.46,0,0,0-.53-2.08A1.74,1.74,0,0,0,87.27,17.81Z"/><path class="cls-2" d="M93,24.25h-1.1V14H93Z"/><path class="cls-2" d="M99.27,24.25l-.22-1h0a3.05,3.05,0,0,1-1.08.92,3.31,3.31,0,0,1-1.34.24,2.42,2.42,0,0,1-1.69-.55,2,2,0,0,1-.61-1.58c0-1.46,1.17-2.23,3.5-2.3l1.23,0v-.45a1.86,1.86,0,0,0-.36-1.26,1.53,1.53,0,0,0-1.18-.4,4.74,4.74,0,0,0-2,.55l-.34-.84a5.46,5.46,0,0,1,1.17-.45,5.12,5.12,0,0,1,1.28-.17,2.74,2.74,0,0,1,1.92.58,2.42,2.42,0,0,1,.62,1.84v4.94Zm-2.48-.77a2.24,2.24,0,0,0,1.61-.56A2.1,2.1,0,0,0,99,21.34v-.65l-1.1,0a4,4,0,0,0-1.89.4,1.24,1.24,0,0,0-.57,1.12,1.14,1.14,0,0,0,.36.91A1.51,1.51,0,0,0,96.79,23.48Z"/><path class="cls-2" d="M100.72,17h1.17l1.59,4.13a16.33,16.33,0,0,1,.65,2h.05c.06-.22.18-.61.36-1.15s.78-2.22,1.79-5h1.18l-3.11,8.24A4.13,4.13,0,0,1,103.32,27a2.33,2.33,0,0,1-1.52.51,4.77,4.77,0,0,1-1-.11v-.88a4,4,0,0,0,.81.08,1.67,1.67,0,0,0,1.61-1.27l.41-1Z"/><path class="cls-2" d="M67.12,17.68a2.46,2.46,0,0,1-.2,4.2,1.07,1.07,0,0,0-.42.74.85.85,0,0,0,.39.65l.55.42a2.63,2.63,0,0,1,1.27,2.12c0,1.43-1.38,2.86-4,2.86-2.2,0-3.26-1-3.26-2.16a2.19,2.19,0,0,1,1.17-1.85A6.49,6.49,0,0,1,65.53,24a1.61,1.61,0,0,1-.45-1,1.28,1.28,0,0,1,.15-.59l-.49,0A2.4,2.4,0,0,1,62.23,20a2.72,2.72,0,0,1,1-2,4.12,4.12,0,0,1,2.71-.83H69l-1,.54Zm-1.07,6.73a1.89,1.89,0,0,0-.35,0,6.06,6.06,0,0,0-1.59.24,1.71,1.71,0,0,0-1.3,1.56c0,1.08,1,1.85,2.66,1.85,1.45,0,2.23-.7,2.23-1.64C67.7,25.63,67.2,25.22,66.05,24.41Zm.44-2.88a1.56,1.56,0,0,0,.37-1.11c0-1.09-.65-2.78-1.9-2.78a1.41,1.41,0,0,0-1.06.5,1.75,1.75,0,0,0-.34,1.12c0,1,.59,2.69,1.9,2.69A1.59,1.59,0,0,0,66.49,21.53Z"/><path class="cls-2" d="M57.59,24.16A3.57,3.57,0,0,1,53.9,20.6a3.75,3.75,0,0,1,3.92-3.68,3.53,3.53,0,0,1,3.61,3.57A3.69,3.69,0,0,1,57.59,24.16Zm1.89-1.22a2.75,2.75,0,0,0,.45-1.68c0-1.33-.63-3.87-2.5-3.87a2.09,2.09,0,0,0-1.36.52,2.28,2.28,0,0,0-.7,1.84c0,1.5.74,4,2.57,4A1.94,1.94,0,0,0,59.48,22.94Z"/><path class="cls-2" d="M49.4,24.16a3.57,3.57,0,0,1-3.69-3.56,3.75,3.75,0,0,1,3.92-3.68,3.53,3.53,0,0,1,3.61,3.57A3.7,3.7,0,0,1,49.4,24.16Zm1.89-1.22a2.75,2.75,0,0,0,.45-1.68c0-1.33-.63-3.87-2.51-3.87a2.13,2.13,0,0,0-1.36.52,2.27,2.27,0,0,0-.69,1.84c0,1.5.74,4,2.57,4A1.94,1.94,0,0,0,51.29,22.94Z"/><path class="cls-2" d="M44.56,23.93l-2.17.5a16,16,0,0,1-2.51.26,5.4,5.4,0,0,1-5.79-5.5c0-3,2.26-5.69,6.14-5.69a9,9,0,0,1,2.32.32,6,6,0,0,1,2,.95L43.3,16l-.53.12.38-.61a4.36,4.36,0,0,0-3.26-1.43,4.19,4.19,0,0,0-4.21,4.48,5.38,5.38,0,0,0,5.38,5.55A4.52,4.52,0,0,0,43,23.7V21.25l-2.29.12,1.21-.65h3.23l-.4.38a.33.33,0,0,0-.15.24c0,.14,0,.58,0,.73Z"/><path class="cls-2" d="M71.92,23.49c-.5,0-.6-.14-.6-.73v-8.7c.07-.53.22-.62.69-.89H69.84l-1.14.54h1.16v9.38c0,.31-.06.35-.41.81h2.69l.56-.33C72.44,23.53,72.18,23.52,71.92,23.49Z"/><path class="cls-2" d="M78.11,23.63c-.17.09-.34.2-.5.27a3.47,3.47,0,0,1-1.47.29,3.2,3.2,0,0,1-2-.59,3.91,3.91,0,0,1-1.54-3.19,3.42,3.42,0,0,1,3.45-3.48,3,3,0,0,1,1.56.42,2.49,2.49,0,0,1,1,1.5l-3.54,1.43L74,20.37a3.34,3.34,0,0,0,3.11,3,3.91,3.91,0,0,0,1.84-.53Zm-1.42-4.5c.28-.1.44-.19.44-.41a1.5,1.5,0,0,0-1.5-1.29,1.86,1.86,0,0,0-1.73,2.09c0,.26,0,.53,0,.8Z"/><path class="cls-2" d="M79.56,17v1h-.12V17h-.33v-.1h.78V17Z"/><path class="cls-2" d="M80.92,18V17h0l-.3,1h-.1l-.31-1h0v1h-.11v-1.1h.19l.28.89h0l.28-.89H81V18Z"/><path class="cls-2" d="M37.11,10.55h-.76a5.08,5.08,0,0,0-.21-.89H35.05a4.27,4.27,0,0,0-.22.89h-.71A13.92,13.92,0,0,1,34.67,9a13,13,0,0,0,.55-1.57h.89A13.26,13.26,0,0,0,36.61,9,14,14,0,0,1,37.11,10.55ZM36,9.21c-.27-.81-.41-1.25-.41-1.31h0a13.58,13.58,0,0,1-.42,1.31Z"/><path class="cls-2" d="M40.15,10.55h-.58a5.78,5.78,0,0,0-.65-1,6.14,6.14,0,0,1-.78-1.33h0a8.32,8.32,0,0,1,.06.94c0,.38,0,.86,0,1.42h-.58c0-.49,0-1,0-1.61s0-1.06,0-1.47h.7a4.1,4.1,0,0,0,.58,1,5.53,5.53,0,0,1,.71,1.26h0a8.46,8.46,0,0,1-.06-.94q0-.64,0-1.32h.59q0,.59,0,1.47C40.12,9.53,40.13,10.07,40.15,10.55Z"/><path class="cls-2" d="M43.57,8.9a1.71,1.71,0,0,1-.43,1.17,1.49,1.49,0,0,1-1.2.5l-1,0c0-.48,0-1,0-1.61s0-1.06,0-1.47h1a1.62,1.62,0,0,1,1.24.42A1.52,1.52,0,0,1,43.57,8.9Zm-.64.1a1.12,1.12,0,0,0-.27-.76,1,1,0,0,0-.81-.31l-.27,0c0,.32,0,.65,0,1s0,.75,0,1.12l.31,0a.89.89,0,0,0,.75-.32A1.23,1.23,0,0,0,42.93,9Z"/><path class="cls-2" d="M46.72,10.55H46a4.67,4.67,0,0,0-.42-1,.53.53,0,0,0-.47-.19h-.26c0,.41,0,.81,0,1.23h-.65c0-.48,0-1,0-1.61s0-1.06,0-1.47h1.12c.72,0,1.08.25,1.08.74a.84.84,0,0,1-.62.82v0a.76.76,0,0,1,.42.38A7.34,7.34,0,0,1,46.72,10.55Zm-.88-2.17c0-.32-.2-.47-.61-.47a2.38,2.38,0,0,0-.39,0c0,.24,0,.56,0,1h.22C45.59,8.9,45.84,8.72,45.84,8.38Z"/><path class="cls-2" d="M50.1,9a1.65,1.65,0,0,1-.44,1.2,1.44,1.44,0,0,1-1.1.48,1.4,1.4,0,0,1-1-.44,1.53,1.53,0,0,1-.42-1.11,1.72,1.72,0,0,1,.44-1.2,1.46,1.46,0,0,1,1.1-.48,1.38,1.38,0,0,1,1,.44A1.53,1.53,0,0,1,50.1,9ZM49.45,9a1.22,1.22,0,0,0-.25-.8.8.8,0,0,0-.62-.31.74.74,0,0,0-.59.31,1.25,1.25,0,0,0-.24.78,1.2,1.2,0,0,0,.26.8.74.74,0,0,0,.62.31.7.7,0,0,0,.58-.31A1.25,1.25,0,0,0,49.45,9Z"/><path class="cls-2" d="M51.44,10.55h-.67c0-.49,0-1,0-1.61s0-1.06,0-1.47h.67q0,.6,0,1.47C51.41,9.53,51.42,10.07,51.44,10.55Z"/><path class="cls-2" d="M54.86,8.9a1.76,1.76,0,0,1-.43,1.17,1.49,1.49,0,0,1-1.2.5l-1,0c0-.48,0-1,0-1.61s0-1.06,0-1.47h1a1.58,1.58,0,0,1,1.23.42A1.48,1.48,0,0,1,54.86,8.9Zm-.65.1A1.12,1.12,0,0,0,54,8.24a1,1,0,0,0-.81-.31l-.28,0q0,.48,0,1c0,.37,0,.75,0,1.12a1.63,1.63,0,0,0,.31,0A.89.89,0,0,0,54,9.77,1.22,1.22,0,0,0,54.21,9Z"/><path class="cls-2" d="M59.39,10.55h-.75a4.6,4.6,0,0,0-.22-.89H57.33a5.11,5.11,0,0,0-.22.89H56.4c0-.07.19-.57.55-1.51a11.2,11.2,0,0,0,.55-1.57h.9A11.28,11.28,0,0,0,58.9,9,12.62,12.62,0,0,1,59.39,10.55ZM58.3,9.21C58,8.4,57.9,8,57.9,7.9h0c0,.06-.14.5-.41,1.31Z"/><path class="cls-2" d="M62.15,8.28a.92.92,0,0,1-.42.83,1.86,1.86,0,0,1-1,.27h-.16q0,.43,0,1.17h-.66c0-.46,0-1,0-1.61s0-1.06,0-1.47h1.17a1.41,1.41,0,0,1,.76.2A.71.71,0,0,1,62.15,8.28Zm-.61.13c0-.34-.23-.51-.67-.51a1.59,1.59,0,0,0-.36,0c0,.3,0,.63,0,1h.14C61.25,9,61.54,8.77,61.54,8.41Z"/><path class="cls-2" d="M65,8.28a.92.92,0,0,1-.42.83,1.86,1.86,0,0,1-1,.27h-.16q0,.43,0,1.17h-.66c0-.46,0-1,0-1.61s0-1.06,0-1.47h1.17a1.41,1.41,0,0,1,.76.2A.71.71,0,0,1,65,8.28Zm-.61.13c0-.34-.23-.51-.67-.51a1.59,1.59,0,0,0-.36,0c0,.3,0,.63,0,1h.14C64.08,9,64.37,8.77,64.37,8.41Z"/><path class="cls-2" d="M69.6,9a1.69,1.69,0,0,1-.44,1.2,1.44,1.44,0,0,1-1.1.48,1.4,1.4,0,0,1-1-.44,1.53,1.53,0,0,1-.42-1.11A1.72,1.72,0,0,1,67,7.88a1.44,1.44,0,0,1,1.1-.48,1.38,1.38,0,0,1,1,.44A1.53,1.53,0,0,1,69.6,9ZM69,9a1.22,1.22,0,0,0-.25-.8.8.8,0,0,0-.62-.31.74.74,0,0,0-.59.31,1.25,1.25,0,0,0-.24.78,1.25,1.25,0,0,0,.25.8.78.78,0,0,0,.63.31.7.7,0,0,0,.58-.31A1.25,1.25,0,0,0,69,9Z"/><path class="cls-2" d="M72.8,10.55h-.58a5.78,5.78,0,0,0-.65-1,5.56,5.56,0,0,1-.77-1.33h0a8.32,8.32,0,0,1,.06.94c0,.38,0,.86,0,1.42h-.58c0-.49,0-1,0-1.61s0-1.06,0-1.47H71a4.1,4.1,0,0,0,.58,1,6.2,6.2,0,0,1,.72,1.26h0a8.46,8.46,0,0,1-.06-.94q0-.64,0-1.32h.59q0,.59,0,1.47C72.77,9.53,72.78,10.07,72.8,10.55Z"/><path class="cls-2" d="M28.56,18.74l-3.91-2.25-3.21,3.1,2.94,2.84L28.56,20a.74.74,0,0,0,.37-.64A.73.73,0,0,0,28.56,18.74Z"/><polygon class="cls-2" points="23.99 16.1 19.69 13.62 10.27 8.79 20.91 19.08 23.99 16.1"/><polygon class="cls-2" points="10.42 30.24 19.71 25.13 23.71 22.82 20.91 20.11 10.42 30.24"/><polygon class="cls-2" points="9.64 9.21 9.63 29.99 20.38 19.59 9.64 9.21"/></g></g></svg>