<svg xmlns="http://www.w3.org/2000/svg" xmlns:xlink="http://www.w3.org/1999/xlink" viewBox="0 0 114.77 114.35"><defs><style>.cls-1{fill:none;clip-rule:evenodd;}.cls-2{clip-path:url(#clip-path);}.cls-3{fill:#ccc;}.cls-4{fill:#d4d4d4;}.cls-5{fill:#8a8a8a;}.cls-6{fill:#a91f21;}.cls-6,.cls-7{fill-rule:evenodd;}.cls-7{fill:#951522;}</style><clipPath id="clip-path" transform="translate(4.88 8.76)"><path class="cls-1" d="M62.93,88.71a26.31,26.31,0,0,1,36-24.48,50.38,50.38,0,1,0-34,34.49A26.24,26.24,0,0,1,62.93,88.71Z"/></clipPath></defs><title>icono-bote</title><g id="Capa_2" data-name="Capa 2"><g id="Layer_1" data-name="Layer 1"><g class="cls-2"><path class="cls-3" d="M104.3,17.52c-1-3-6-7-9-9-7-6-15-11-22-13-4-1.1-8.49-2.27-13.12-3.3-5.24,0-10.09.78-13.88,3.3-9,6-20,7-30,11-5,2-5,8-8,12-2,1-3,3.94-5.93,3C.45,30.21-1.24,39.19-4.88,47.69-2.35,59.1-3.31,71.38,4.3,81.52c1,1-1,4,0,5,3,4,10,1,12,4,7,8,15,10,24,12,25,5,51,2,63-21,2.61-5.22,3.71-10.45,6.59-15C109.47,50.34,108.19,34.05,104.3,17.52Z" transform="translate(4.88 8.76)"/><path class="cls-4" d="M101.3,76.52c0-3,2-5,3-7,5-18,4-39-6-52-7-8-16-19-26-23-14.17-6-30-2.48-45.86.1L10.28,10.78,85.57,86.07C90.1,81.83,98.57,82.87,101.3,76.52Z" transform="translate(4.88 8.76)"/><path class="cls-5" d="M89.2,41l-6-3.9L59.84,45.4l-4.36-2.58h-11V41.38h4.74V37.47H35.79v3.91h4.74v1.44H28.21l-8.12-4.68L13.9,44.6l13.15,17,.13-.1v2.19H55.64L83,41.7l4,2.61ZM19.06,44.88l1.74-1.81,6.38,3.68v8.63ZM54.26,59.8H31.1V46.74H54.4l5,3L72.66,45Zm36.81-7.36a2.94,2.94,0,1,1-5.87,0c0-1.63,2.94-6.77,2.94-6.77s2.93,5.14,2.93,6.77Z" transform="translate(4.88 8.76)"/></g><path class="cls-6" d="M88.38,68.4A18.6,18.6,0,1,0,107,87,18.59,18.59,0,0,0,88.38,68.4ZM84.8,97.52a1.95,1.95,0,1,1,2-2A2,2,0,0,1,84.8,97.52Zm8.63,0a1.95,1.95,0,1,1,1.95-2A1.94,1.94,0,0,1,93.43,97.52Zm3.91-15.67-2,6.17a1.56,1.56,0,0,1-1.28,1H84.68l.55,1.52h8.62a.94.94,0,0,1,0,1.88l-9.2,0a.9.9,0,0,1-.46-.12.94.94,0,0,1-.51-.54L79.12,79.34h-2a.94.94,0,1,1,0-1.87h2.6a1,1,0,0,1,.45.12.94.94,0,0,1,.51.54l1,2.72h15A.72.72,0,0,1,97.34,81.85Z" transform="translate(4.88 8.76)"/><path class="cls-7" d="M88.38,69.54a18.59,18.59,0,0,1,18.58,18c0-.18,0-.37,0-.56a18.6,18.6,0,1,0-37.19,0c0,.19,0,.38,0,.56A18.59,18.59,0,0,1,88.38,69.54Z" transform="translate(4.88 8.76)"/><path class="cls-7" d="M93.43,97.52a1.94,1.94,0,0,1-1.85-1.38,2.12,2.12,0,0,0-.09.57,1.95,1.95,0,1,0,3.89,0,1.8,1.8,0,0,0-.1-.57A1.93,1.93,0,0,1,93.43,97.52Z" transform="translate(4.88 8.76)"/><path class="cls-7" d="M77.1,80.47h2l4.56,12.44a.94.94,0,0,0,.51.54.91.91,0,0,0,.46.13l9.2,0a.93.93,0,0,0,.94-.92.83.83,0,0,0-.22-.58.93.93,0,0,1-.72.35l-9.2,0a.9.9,0,0,1-.46-.12.94.94,0,0,1-.51-.54L79.12,79.34h-2a.92.92,0,0,1-.73-.37.9.9,0,0,0-.2.57A.94.94,0,0,0,77.1,80.47Z" transform="translate(4.88 8.76)"/><path class="cls-7" d="M84.8,97.52A1.94,1.94,0,0,1,83,96.14a1.8,1.8,0,0,0-.1.57,2,2,0,0,0,3.9,0,1.8,1.8,0,0,0-.1-.57A1.93,1.93,0,0,1,84.8,97.52Z" transform="translate(4.88 8.76)"/><path class="cls-7" d="M97.17,82.37,95.34,88a1.56,1.56,0,0,1-1.28,1H84.68l.5,1.37h8.88a1.63,1.63,0,0,0,1.28-1.09l2-6.23A.63.63,0,0,0,97.17,82.37Z" transform="translate(4.88 8.76)"/></g></g></svg>