<svg xmlns="http://www.w3.org/2000/svg" xmlns:xlink="http://www.w3.org/1999/xlink" width="209.933" height="209.933" viewBox="0 0 209.933 209.933">
  <defs>
    <linearGradient id="linear-gradient" x1="0.851" y1="0.5" x2="0.265" y2="0.5" gradientUnits="objectBoundingBox">
      <stop offset="0" stop-color="#b00035"/>
      <stop offset="0.272" stop-color="#b20230"/>
      <stop offset="0.55" stop-color="#b90b24"/>
      <stop offset="0.831" stop-color="#c41a10"/>
      <stop offset="1" stop-color="#ce2600"/>
    </linearGradient>
  </defs>
  <g id="Grupo_951" data-name="Grupo 951" transform="translate(-207.984 -2297)">
    <circle id="Elipse_4" data-name="Elipse 4" cx="89.634" cy="89.634" r="89.634" transform="matrix(0.189, -0.982, 0.982, 0.189, 207.984, 2473.033)" fill="url(#linear-gradient)"/>
    <g id="Grupo_70" data-name="Grupo 70" transform="translate(-3116.356)" style="mix-blend-mode: screen;isolation: isolate">
      <g id="Grupo_69" data-name="Grupo 69">
        <path id="Trazado_127" data-name="Trazado 127" d="M3442.986,2374.872v-7.752c0-14.882-58.842-14.882-58.842,0v45.343c0,5.85,9.158,9.5,20.175,10.794-4.03,1.807-6.6,4.249-6.6,7.343v13.6c0,7.441,14.8,11.335,29.421,11.335s29.422-3.894,29.422-11.335v-6.839c13.845-.381,27.158-4.241,27.158-11.3v-40.809C3483.724,2375.862,3460.28,2372.405,3442.986,2374.872Zm-29.421-14.387c16.108,0,24.9,4.484,24.9,6.789s-8.787,6.79-24.9,6.79-24.9-4.485-24.9-6.79S3397.458,2360.485,3413.565,2360.485Zm-24.9,13.087c5.492,3.3,15.219,5.018,24.9,5.018s19.4-1.713,24.9-5.018v2.249c-7.865,1.745-13.579,4.93-13.579,9.559v1.339a71.79,71.79,0,0,1-11.316.924c-16.107,0-24.9-4.484-24.9-6.79v-7.281Zm40.737,45.264c.431.259.879.511,1.36.75-.453-.019-.905-.037-1.36-.049Zm-40.737-31.685c5.492,3.306,15.219,5.018,24.9,5.018a76.63,76.63,0,0,0,11.316-.888v11.28a71.819,71.819,0,0,1-11.316.924c-16.108,0-24.9-4.484-24.9-6.789v-9.545Zm0,25.387v-9.544c5.492,3.305,15.219,5.018,24.9,5.018a76.8,76.8,0,0,0,11.316-.888v11.28a71.82,71.82,0,0,1-11.316.924C3397.458,2419.328,3388.67,2414.843,3388.67,2412.538Zm63.369,31.685c0,2.305-8.787,6.789-24.9,6.789s-24.9-4.484-24.9-6.789v-7.282c5.492,3.306,15.219,5.018,24.9,5.018,9.262,0,18.584-1.565,24.182-4.6.235.009.477.01.713.017v6.844Zm-24.9-6.79c-16.107,0-24.894-4.484-24.894-6.789s8.787-6.79,24.894-6.79,24.9,4.484,24.9,6.79S3443.252,2437.433,3427.144,2437.433Zm52.053-11.316c0,2.191-8.019,6.3-22.631,6.711v-2.184c0-2.828-2.14-5.114-5.592-6.865,1.107.045,2.217.075,3.328.075,9.676,0,19.4-1.713,24.9-5.018v7.281Zm0-13.579c0,2.3-8.787,6.79-24.894,6.79s-24.9-4.485-24.9-6.79v-7.281c5.491,3.3,15.219,5.018,24.9,5.018s19.4-1.713,24.894-5.018Zm0-13.579c0,2.3-8.787,6.789-24.894,6.789s-24.9-4.484-24.9-6.789v-7.281c5.491,3.3,15.219,5.018,24.9,5.018s19.4-1.713,24.894-5.018Zm-24.894-6.79c-16.108,0-24.9-4.484-24.9-6.789s8.787-6.79,24.9-6.79,24.894,4.485,24.894,6.79S3470.41,2392.169,3454.3,2392.169Z" fill="#fff" stroke="#000" stroke-miterlimit="10" stroke-width="1.366"/>
      </g>
    </g>
  </g>
</svg>
