<svg xmlns="http://www.w3.org/2000/svg" xmlns:xlink="http://www.w3.org/1999/xlink" width="209.933" height="209.933" viewBox="0 0 209.933 209.933">
  <defs>
    <linearGradient id="linear-gradient" x1="0.851" y1="0.5" x2="0.265" y2="0.5" gradientUnits="objectBoundingBox">
      <stop offset="0" stop-color="#b00035"/>
      <stop offset="0.272" stop-color="#b20230"/>
      <stop offset="0.55" stop-color="#b90b24"/>
      <stop offset="0.831" stop-color="#c41a10"/>
      <stop offset="1" stop-color="#ce2600"/>
    </linearGradient>
  </defs>
  <g id="Grupo_954" data-name="Grupo 954" transform="translate(-1015.528 -2297.001)">
    <circle id="Elipse_1" data-name="Elipse 1" cx="89.634" cy="89.634" r="89.634" transform="translate(1015.528 2473.033) rotate(-79.099)" fill="url(#linear-gradient)"/>
    <g id="Grupo_73" data-name="Grupo 73" transform="translate(-3116.356)" style="mix-blend-mode: screen;isolation: isolate">
      <path id="Trazado_132" data-name="Trazado 132" d="M4199.054,2376.982h-1.923a1.922,1.922,0,0,0,0,3.843h1.923a1.922,1.922,0,0,0,0-3.843Z" fill="#fff" stroke="#000" stroke-miterlimit="10" stroke-width="0.5"/>
      <path id="Trazado_133" data-name="Trazado 133" d="M4256.708,2413.5h1.922a1.922,1.922,0,1,0,0-3.843h-1.922a1.922,1.922,0,1,0,0,3.843Z" fill="#fff" stroke="#000" stroke-miterlimit="10" stroke-width="0.5"/>
      <path id="Trazado_134" data-name="Trazado 134" d="M4208.662,2413.5h1.923a1.922,1.922,0,0,0,0-3.843h-1.923a1.922,1.922,0,0,0,0,3.843Z" fill="#fff" stroke="#000" stroke-miterlimit="10" stroke-width="0.5"/>
      <path id="Trazado_135" data-name="Trazado 135" d="M4199.054,2413.5h1.921a1.922,1.922,0,1,0,0-3.843h-1.921a1.922,1.922,0,1,0,0,3.843Z" fill="#fff" stroke="#000" stroke-miterlimit="10" stroke-width="0.5"/>
      <path id="Trazado_136" data-name="Trazado 136" d="M4181.756,2426.95a1.922,1.922,0,0,0,1.923,1.921,14.284,14.284,0,0,0,7.879-2.159,11.687,11.687,0,0,1,12.115.017,15.5,15.5,0,0,0,15.763-.022,10.57,10.57,0,0,1,6.024-1.679,10.781,10.781,0,0,1,6.08,1.7,15.5,15.5,0,0,0,15.759-.022,10.57,10.57,0,0,1,6.027-1.679,10.774,10.774,0,0,1,6.08,1.7,15.5,15.5,0,0,0,15.76-.017,10.758,10.758,0,0,1,6.046-1.684c.416,0,.8.016,1.19.052a10.672,10.672,0,0,1,4.84,1.634,14.425,14.425,0,0,0,7.9,2.157,1.922,1.922,0,0,0,0-3.843,10.684,10.684,0,0,1-6.046-1.682,16.89,16.89,0,0,0-3.672-1.612l11.436-22.749a1.921,1.921,0,0,0-1.718-2.785h-9.61v-26.906a1.922,1.922,0,0,0-1.921-1.922h-46.075a1.974,1.974,0,0,0-1.973,1.974v1.87h0v7.688h-19.219v0h-1.7a2.14,2.14,0,0,0-2.14,2.139v20.926h-3.844v-28.828a1.922,1.922,0,0,0-1.921-1.922h-15.375a1.922,1.922,0,0,0-1.9,1.629l-3.593,23.355h-2.195a1.923,1.923,0,0,0-1.923,1.922v17.292a1.93,1.93,0,0,0,.276.994l4.914,8.192a11.136,11.136,0,0,1-3.267.428A1.923,1.923,0,0,0,4181.756,2426.95Zm80.717-55.734h19.219v7.688h-19.219Zm0,11.531h19.219v7.687h-19.219Zm0,11.532h19.219v1.921h-9.609a1.921,1.921,0,0,0-1.152.384l-7.175,5.382h-1.283Zm-23.062-23.063h19.219v7.688h-19.219Zm0,11.531h19.219v7.687h-19.219Zm0,11.532h19.219v7.687h-19.219Zm-23.062-11.532h19.219v7.687h-19.219Zm0,11.532h19.219v7.687h-19.219Zm-23.334-19.219h11.8v24.189l-2.484-2.485a1.926,1.926,0,0,0-1.361-.564h-11.21Zm-7.415,39.826v-14.842h14.579l5.2,5.2a1.922,1.922,0,0,0,1.36.563H4264.4a1.922,1.922,0,0,0,1.153-.384l7.174-5.381h19.3l-10.629,21.14-.009,0a14.458,14.458,0,0,0-8.084,2.155,11.675,11.675,0,0,1-12.107-.017,15.5,15.5,0,0,0-15.759.017,11.677,11.677,0,0,1-12.108-.017,15.492,15.492,0,0,0-15.752.017,11.682,11.682,0,0,1-12.113-.017,14.381,14.381,0,0,0-7.854-2.143c-.47,0-.9.02-1.324.049-.141.009-.269.026-.406.04-.267.027-.532.053-.782.09-.148.023-.286.048-.428.075-.22.039-.433.079-.638.127-.138.031-.271.065-.4.1q-.288.077-.577.165c-.118.035-.236.072-.35.11-.191.066-.371.135-.547.206-.093.036-.192.071-.279.11-.214.09-.419.183-.62.278l-.13.06c-.24.118-.474.237-.7.356Z" fill="#fff" stroke="#000" stroke-miterlimit="10" stroke-width="0.5"/>
      <path id="Trazado_137" data-name="Trazado 137" d="M4218.272,2413.5h1.921a1.922,1.922,0,1,0,0-3.843h-1.921a1.922,1.922,0,1,0,0,3.843Z" fill="#fff" stroke="#000" stroke-miterlimit="10" stroke-width="0.5"/>
      <path id="Trazado_138" data-name="Trazado 138" d="M4295.145,2432.715a10.7,10.7,0,0,1-6.044-1.683,15.514,15.514,0,0,0-15.8,0,11.683,11.683,0,0,1-12.079,0,15.506,15.506,0,0,0-15.794,0,11.674,11.674,0,0,1-12.074,0,15.5,15.5,0,0,0-15.789,0,11.662,11.662,0,0,1-12.069,0,15.491,15.491,0,0,0-15.785,0,10.669,10.669,0,0,1-6.036,1.683,1.922,1.922,0,1,0,0,3.843,14.363,14.363,0,0,0,7.893-2.162,11.668,11.668,0,0,1,12.071,0,15.489,15.489,0,0,0,15.782,0,11.673,11.673,0,0,1,12.074,0,15.512,15.512,0,0,0,15.792,0,11.675,11.675,0,0,1,12.077,0,15.512,15.512,0,0,0,15.792,0,11.694,11.694,0,0,1,12.088,0,14.4,14.4,0,0,0,7.9,2.159,1.922,1.922,0,0,0,0-3.843Z" fill="#fff" stroke="#000" stroke-miterlimit="10" stroke-width="0.5"/>
      <path id="Trazado_139" data-name="Trazado 139" d="M4237.49,2413.5h1.921a1.922,1.922,0,1,0,0-3.843h-1.921a1.922,1.922,0,1,0,0,3.843Z" fill="#fff" stroke="#000" stroke-miterlimit="10" stroke-width="0.5"/>
      <path id="Trazado_140" data-name="Trazado 140" d="M4247.1,2413.5h1.922a1.922,1.922,0,0,0,0-3.843H4247.1a1.922,1.922,0,1,0,0,3.843Z" fill="#fff" stroke="#000" stroke-miterlimit="10" stroke-width="0.5"/>
      <path id="Trazado_141" data-name="Trazado 141" d="M4266.317,2413.5h1.922a1.922,1.922,0,1,0,0-3.843h-1.922a1.922,1.922,0,0,0,0,3.843Z" fill="#fff" stroke="#000" stroke-miterlimit="10" stroke-width="0.5"/>
      <path id="Trazado_142" data-name="Trazado 142" d="M4227.88,2413.5h1.923a1.922,1.922,0,0,0,0-3.843h-1.923a1.922,1.922,0,0,0,0,3.843Z" fill="#fff" stroke="#000" stroke-miterlimit="10" stroke-width="0.5"/>
      <path id="Trazado_143" data-name="Trazado 143" d="M4275.927,2413.5h1.921a1.922,1.922,0,1,0,0-3.843h-1.921a1.922,1.922,0,1,0,0,3.843Z" fill="#fff" stroke="#000" stroke-miterlimit="10" stroke-width="0.5"/>
    </g>
  </g>
</svg>
