<svg xmlns="http://www.w3.org/2000/svg" viewBox="0 0 1127.06 1794.18"><defs><style>.cls-1,.cls-2{fill:none;stroke:#f2f2f2;stroke-linecap:round;stroke-miterlimit:10;stroke-width:4px;}.cls-1{stroke-dasharray:8 10;}.cls-3{fill:#f2f2f2;}</style></defs><title>liena-background-conocenos</title><g id="Capa_2" data-name="Capa 2"><g id="Layer_2" data-name="Layer 2"><path class="cls-1" d="M2,14.85c422.16-53.34,733.33,63.3,1021.55,277.76C664.68,319.2,480.43,516.12,411.08,825.12c341.18,25.7,543.26,227.36,622.77,584.08-390-74.74-743-18.33-1031.85,265.49"/><path class="cls-2" d="M259,1683s-3-9.57-3-14.83a38.09,38.09,0,0,1,47.34-37,38.15,38.15,0,0,1,67.39.13A33.36,33.36,0,0,1,410,1649.11h3.22a28.61,28.61,0,0,1,28.58,28.58h76.68"/><path class="cls-2" d="M865.58,1792.18s-3-9.56-3-14.82a38.16,38.16,0,0,1,38.11-38.11,38.58,38.58,0,0,1,9.24,1.13,38.16,38.16,0,0,1,67.39.13,33.41,33.41,0,0,1,39.26,17.8h3.21a28.62,28.62,0,0,1,28.59,28.58h76.68"/><path class="cls-3" d="M889.55,1068.32a1.4,1.4,0,0,0-2.15,1.79,1.4,1.4,0,0,0,2.15-1.79Z"/><path class="cls-3" d="M907.08,1075.86c-1.63-2.56-2.52-3.3-10.12-12.57l1.3-5,2.12,2.55a4.2,4.2,0,0,0,6.46-5.36l-6-7.21,5.91-22.69a4.72,4.72,0,0,0-8.11-4.3l-18.79,21.4L876,1038a35.91,35.91,0,0,0-5.6-5.19l4.15-10.41a4.52,4.52,0,0,0-7.66-4.59L860,1026c-3.23-1.84-5.58-3-5.69-3a1.37,1.37,0,0,0-1.51.18,1.4,1.4,0,0,0-.46,1.45c0,.11.73,2.64,1.95,6.16l-9.35,5.25a4.52,4.52,0,0,0,3.08,8.38l11-2.14a35.5,35.5,0,0,0,4,6.46l3.9,4.71-24.52,14.47a4.72,4.72,0,0,0,2.72,8.78l23.39-1.59,6,7.2a4.2,4.2,0,0,0,6.47-5.35l-2.12-2.55L884,1074c7.7,9.19,8.25,10.19,10.46,12.27h0c5.17,4.82,10.7,6.35,13.77,3.81S910.85,1081.84,907.08,1075.86Zm-2.39-18.59a1.4,1.4,0,1,1-2.16,1.78l-3.4-4.1.87-3.34Zm-3.92-34.15a1.93,1.93,0,0,1,2.93,0,2,2,0,0,1,.38,1.72l-9.32,35.76-13.07-15.78Zm-29.1-3.52a1.72,1.72,0,0,1,.27,1.74l-3.88,9.74c-1.7-1.19-3.59-2.41-5.63-3.64l6.59-7.84A1.73,1.73,0,0,1,871.67,1019.6ZM845.8,1041a1.72,1.72,0,0,1,.49-2.6l8.93-5c.83,2.24,1.68,4.32,2.53,6.21l-10.29,2A1.73,1.73,0,0,1,845.8,1041Zm33,37.66a1.4,1.4,0,0,1-2.15,1.79l-4.69-5.66,3.44-.23ZM845,1073.86a1.93,1.93,0,0,1-1.11-3.58l24.91-14.7,13.07,15.77Zm20.25-26.95a35.39,35.39,0,0,1-4.3-7.13A104.66,104.66,0,0,1,856,1027a102.82,102.82,0,0,1,11.86,7.39,34.83,34.83,0,0,1,6,5.39c30.76,37.23,29.2,35,30.66,37.26a6.85,6.85,0,0,1-8.37,6.94C894.2,1082.11,896,1084,865.21,1046.91Zm34.35,39.78a9.26,9.26,0,0,0,7-5.78c.83,2.11,1.66,5.62,0,7C905.13,1089.06,902.44,1088.5,899.56,1086.69Z"/><path class="cls-3" d="M896.7,1076.94l-3.57-4.31a1.4,1.4,0,0,0-2.16,1.79l3.57,4.31a1.4,1.4,0,0,0,2.16-1.79Z"/></g></g></svg>