<svg xmlns="http://www.w3.org/2000/svg" width="170" height="45" viewBox="0 0 193 45">
  <g id="Grupo_801" data-name="Grupo 801" transform="translate(-191.747 -3150.559)">
    <path id="Trazado_1367" data-name="Trazado 1367" d="M233,3173.112q0,4.061,0,8.121a5.727,5.727,0,0,1-3.061,5.271c-4.725,2.723-9.467,5.415-14.2,8.128a6.27,6.27,0,0,1-6.6-.026c-4.6-2.6-9.194-5.224-13.807-7.806a6.2,6.2,0,0,1-3.494-5.561c-.075-5.494-.135-10.991-.047-16.484a5.932,5.932,0,0,1,3.245-5.206q7.11-4.046,14.219-8.092a6.092,6.092,0,0,1,6.372,0q7.117,4.029,14.234,8.058a5.843,5.843,0,0,1,3.152,5.472C232.988,3167.7,233.007,3170.405,233,3173.112Zm-19.864,1.122c4.668,0,9.135.022,13.6-.008,2.706-.019,3.17-.689,2.473-3.319a9.6,9.6,0,0,0-16.281-4.212,8.681,8.681,0,0,0-1.091,1.848,22.31,22.31,0,0,0-3.887-3.471,9.074,9.074,0,0,0-10.283.268c-.6.394-.8,1.381-1.181,2.094a14.105,14.105,0,0,0,2.322-.081,9.617,9.617,0,0,0,1.547-.755,6.882,6.882,0,0,1,9.448,5.338c-3.255,0-6.47-.135-9.669.033-4.383.23-6.3,4.054-3.55,7.415a9.692,9.692,0,0,0,5.116,2.994c4.1.9,7.321-1.042,9.782-4.365.583.677.98,1.2,1.435,1.659,3.349,3.414,9.249,3.926,12.661,1.01.482-.411.525-1.325.77-2.007a10.82,10.82,0,0,0-2.013.11,11.2,11.2,0,0,0-1.54.777A6.827,6.827,0,0,1,213.14,3174.234Z" fill="gray"/>
    <path id="Trazado_1368" data-name="Trazado 1368" d="M304.226,3173.945a6.679,6.679,0,0,0,9.081,5.38,15.222,15.222,0,0,1,1.55-.751,14.461,14.461,0,0,1,2.172-.207c-.382.7-.586,1.655-1.176,2.07a9.1,9.1,0,0,1-11.006-14.471,9.35,9.35,0,0,1,15.005,4.82c.585,2.426.041,3.142-2.488,3.153C312.995,3173.959,308.624,3173.945,304.226,3173.945Zm.023-2.433h13.2a6.275,6.275,0,0,0-6.323-5.44A6.431,6.431,0,0,0,304.249,3171.512Z" fill="gray"/>
    <path id="Trazado_1369" data-name="Trazado 1369" d="M270.154,3175.7a6.677,6.677,0,0,0,9.938,2.915c.547-.361.975-.91,1.539-1.233a18.987,18.987,0,0,1,2.169-.927c-.238.838-.229,1.892-.753,2.479a9.183,9.183,0,0,1-15.325-2.641,8.924,8.924,0,0,1,4.832-11.676,9.281,9.281,0,0,1,12.022,4.346c.814,1.664.493,2.582-1.362,3.051-2.164.546-4.292,1.231-6.44,1.84S272.488,3175.045,270.154,3175.7Zm-.659-2.163c3.747-1.035,7.311-2.01,10.868-3.01.612-.172,1.2-.445,1.8-.673a6.375,6.375,0,0,0-7.508-3.669A6.761,6.761,0,0,0,269.495,3173.532Z" fill="gray"/>
    <path id="Trazado_1370" data-name="Trazado 1370" d="M250.706,3171.663c-1.482-5.125-6.175-6.972-10.528-4.617a7.921,7.921,0,0,1-2.5.413c.529-.8.877-1.875,1.618-2.344a9.181,9.181,0,0,1,12.817,12.2,8.617,8.617,0,0,1-14.08,1.994c-1.307-1.332-2.228-3.258-1.014-4.9a7.449,7.449,0,0,1,4.092-2.608c2.059-.447,4.287-.131,6.442-.14C248.533,3171.659,249.518,3171.663,250.706,3171.663Zm-.164,2.283c-2.819,0-5.62-.125-8.4.062-1.079.073-2.11.85-3.162,1.306.567,1.179.826,2.75,1.756,3.467C244.3,3181.531,249.9,3178.8,250.542,3173.946Z" fill="gray"/>
    <path id="Trazado_1371" data-name="Trazado 1371" d="M321.58,3172.75c0-2.293-.066-4.589.055-6.876a2.01,2.01,0,0,1,1.076-1.524c1.338-.326,2.769-.251,4.134-.5,3.248-.583,6.771,1.693,7.028,5.014.291,3.746.164,7.527.116,11.291-.006.45-.653.891-1,1.337-.318-.483-.893-.957-.91-1.449-.108-3.19.135-6.409-.224-9.565a6.045,6.045,0,0,0-2.287-3.948c-2.394-1.581-5.416.261-5.617,3.308-.206,3.1-.019,6.222-.174,9.326-.04.795-.724,1.558-1.112,2.335a7.786,7.786,0,0,1-1.036-2.369C321.479,3177.015,321.577,3174.879,321.58,3172.75Z" fill="gray"/>
    <path id="Trazado_1372" data-name="Trazado 1372" d="M372.239,3165.223c1.908-.347,3.214-.49,4.467-.828a6.135,6.135,0,0,1,7.876,5.365c.27,3.5.145,7.038.069,10.556-.011.52-.717,1.026-1.1,1.538-.36-.558-1.012-1.107-1.033-1.678-.126-3.353-.015-6.715-.166-10.065a3.567,3.567,0,0,0-3.631-3.631,3.762,3.762,0,0,0-4.191,3.321,11.927,11.927,0,0,0-.157,2.2c-.02,2.536.081,5.078-.069,7.606-.046.764-.758,1.49-1.164,2.233a7.14,7.14,0,0,1-.859-2.242C372.2,3174.7,372.239,3169.81,372.239,3165.223Z" fill="gray"/>
    <path id="Trazado_1373" data-name="Trazado 1373" d="M353.015,3164.117c3.074.049,4.5,1.263,5.174,3.33.139.426-.226,1.012-.359,1.524a7.225,7.225,0,0,1-1.57-.711c-.8-.621-1.508-1.91-2.253-1.909a3.206,3.206,0,0,0-2.514,1.712c-.224.764.572,2.036,1.261,2.775.473.508,1.544.441,2.32.71a5.352,5.352,0,0,1,3.689,5.491,5.537,5.537,0,0,1-4.906,4.8,5.269,5.269,0,0,1-5.569-3.6c-.207-.683.227-1.557.367-2.342.526.488,1.229.885,1.547,1.482,1.079,2.022,2.951,2.913,4.633,1.93s2.317-2.646,1.269-4.179c-.675-.987-2.2-1.547-3.461-1.971-3.677-1.238-4.915-5.237-2.186-7.711A9.092,9.092,0,0,1,353.015,3164.117Z" fill="gray"/>
    <path id="Trazado_1374" data-name="Trazado 1374" d="M293.825,3177.127q1.957-4.983,3.917-9.967a7.568,7.568,0,0,1,.766-1.8,6.065,6.065,0,0,1,1.435-1.059c.183.626.685,1.372.5,1.861-1.863,4.891-3.821,9.748-5.816,14.589-.177.431-.836.983-1.2.939-.426-.05-.95-.633-1.139-1.1-1.936-4.776-3.842-9.564-5.662-14.383-.191-.507.221-1.237.353-1.864.546.356,1.382.591,1.591,1.086,1.626,3.836,3.129,7.721,4.671,11.591Z" fill="gray"/>
    <path id="Trazado_1375" data-name="Trazado 1375" d="M337.9,3174.172c0-1.636-.016-3.273,0-4.908.015-1.252.146-2.512-1.647-2.765a7.33,7.33,0,0,1-.143-1.762c1.358-.026,1.819-.8,1.91-2.043.021-.3.6-.709.984-.792a1.1,1.1,0,0,1,.837.672c.053,2.44,1.809,2.048,3.344,2.044a2.316,2.316,0,0,1,.74.012c.9.314,1.776.671,2.661,1.013-.883.358-1.75.772-2.659,1.05a3.752,3.752,0,0,1-1.48.018c-1.8-.21-2.52.467-2.458,2.332.117,3.514.1,7.036-.027,10.549-.028.758-.763,1.491-1.173,2.235a8.39,8.39,0,0,1-.851-2.26C337.81,3177.777,337.9,3175.971,337.9,3174.172Z" fill="gray"/>
    <path id="Trazado_1376" data-name="Trazado 1376" d="M257.792,3170.222c0,3.2.047,6.4-.041,9.59-.016.591-.576,1.167-.885,1.75-.438-.57-1.25-1.135-1.258-1.711q-.135-9.59,0-19.181c.008-.592.788-1.174,1.21-1.76.324.573.912,1.139.929,1.721C257.839,3163.826,257.791,3167.024,257.792,3170.222Z" fill="gray"/>
    <path id="Trazado_1377" data-name="Trazado 1377" d="M264.1,3170.126c0,3.193.061,6.389-.051,9.579-.023.632-.71,1.24-1.09,1.86-.368-.627-1.047-1.251-1.055-1.882q-.12-9.458,0-18.915c.008-.627.695-1.245,1.067-1.867.376.63,1.053,1.249,1.077,1.891C264.16,3163.9,264.1,3167.014,264.1,3170.126Z" fill="gray"/>
    <path id="Trazado_1378" data-name="Trazado 1378" d="M366.924,3173.187c0-2.379-.054-4.76.045-7.134.021-.51.6-1,.921-1.494.442.482,1.256.958,1.266,1.449q.147,7.132.005,14.27c-.01.507-.8,1-1.228,1.5-.336-.567-.934-1.122-.963-1.7C366.857,3177.783,366.924,3175.484,366.924,3173.187Z" fill="gray"/>
    <path id="Trazado_1379" data-name="Trazado 1379" d="M361.9,3178.834c.807.865,1.775,1.5,1.68,1.89a2.571,2.571,0,0,1-1.572,1.582c-.356.1-1.369-.824-1.449-1.377C360.488,3180.415,361.257,3179.781,361.9,3178.834Z" fill="gray"/>
    <path id="Trazado_1380" data-name="Trazado 1380" d="M370.211,3160.208c-1.015.743-1.614,1.524-2.169,1.494-.57-.031-1.1-.854-1.642-1.33.489-.53.933-1.421,1.481-1.489C368.447,3158.813,369.115,3159.542,370.211,3160.208Z" fill="gray"/>
    <path id="Trazado_1381" data-name="Trazado 1381" d="M226.912,3171.727H213.387c-.084-2.633,2.153-5.024,5.116-5.511C222.482,3165.563,225.447,3167.412,226.912,3171.727Z" fill="gray"/>
    <path id="Trazado_1382" data-name="Trazado 1382" d="M210.014,3174.236c-1.263,5.014-6,7.483-9.731,5.219-1.127-.684-1.617-2.4-2.4-3.636,1.172-.528,2.314-1.412,3.522-1.511C204.173,3174.08,206.971,3174.236,210.014,3174.236Z" fill="gray"/>
  </g>
</svg>
