<svg xmlns="http://www.w3.org/2000/svg" width="170" height="45" viewBox="0 0 227.21 45">
  <g id="Grupo_798" data-name="Grupo 798" transform="translate(-1007.488 -3150.508)">
    <path id="Trazado_1332" data-name="Trazado 1332" d="M1011.24,3174.4c3.12,0,6.239-.011,9.359,0,7.745.032,15.491.13,23.235.072,1.884-.014,2.437.581,2.4,2.433-.106,5.419-.032,10.841-.045,16.261,0,.64-.1,1.279-.2,2.341-3.467-1.868-6.682-3.535-9.808-5.356-.464-.271-.678-1.258-.713-1.929a37.8,37.8,0,0,1,0-5.5c.2-2.081-.692-2.611-2.583-2.474-1.823.132-3.706-.228-5.488.074C1020.92,3181.421,1016.285,3177.5,1011.24,3174.4Z" fill="gray"/>
    <path id="Trazado_1333" data-name="Trazado 1333" d="M1007.628,3171.209v-20.655c3.272,1.767,6.413,3.4,9.469,5.183a2.575,2.575,0,0,1,.73,1.869c.092,2.078.1,4.165.017,6.243-.056,1.426.533,1.926,1.9,1.894,2.327-.055,4.7.278,6.977-.067,6.024-.912,10.3,2.713,14.978,5.533Z" fill="gray"/>
    <path id="Trazado_1334" data-name="Trazado 1334" d="M1169.1,3174.795V3164.03h4.1v3.33c0,4.086.063,8.174-.046,12.257-.026,1-.357,2.561-1,2.845-1.531.678-2.67-.245-3.578-1.743-1.766-2.913-3.785-5.672-5.7-8.5-.366-.539-.726-1.082-1.089-1.624l-.723.343v11.487h-3.9v-18.337a4.014,4.014,0,0,1,4.835,1.627C1164.123,3168.58,1166.382,3171.338,1169.1,3174.795Z" fill="gray"/>
    <path id="Trazado_1335" data-name="Trazado 1335" d="M1230.436,3175.121l4.262,7.4c-2.675.609-4.666.838-5.783-1.946a12.845,12.845,0,0,0-2.225-3.585c-.5-.571-1.516-.688-2.3-1.009a7.589,7.589,0,0,0-.66,1.933c-.1,1.557-.032,3.124-.032,4.819h-4.1c0-3.468,0-6.851,0-10.234,0-2.248-.11-4.5.075-6.737.053-.641.944-1.71,1.482-1.73a53.094,53.094,0,0,1,7.924.226,5.019,5.019,0,0,1,4.594,4.278,5.245,5.245,0,0,1-2.516,5.995A7.081,7.081,0,0,0,1230.436,3175.121Zm-6.6-2.07a31.583,31.583,0,0,0,5.14-2.141,2.948,2.948,0,0,0-.028-2.579,31.126,31.126,0,0,0-5.112-1.6Z" fill="gray"/>
    <path id="Trazado_1336" data-name="Trazado 1336" d="M1104.358,3173.265c.031,6.032-3.48,9.8-9.165,9.84-5.432.037-9.2-3.868-9.254-9.595-.058-5.923,3.791-10.014,9.41-10C1100.822,3163.521,1104.327,3167.319,1104.358,3173.265Zm-4.005-.094c-.045-3.556-2.209-6.184-5.135-6.234-3.1-.054-5.334,2.565-5.343,6.266-.01,3.881,2.247,6.6,5.382,6.48C1098.317,3179.567,1100.4,3176.905,1100.353,3173.171Z" fill="gray"/>
    <path id="Trazado_1337" data-name="Trazado 1337" d="M1079.806,3182.494h-3.741v-7.865c-2.289,0-4.34-.1-6.364.081-.456.042-1.122,1.073-1.169,1.689-.151,1.963-.056,3.944-.056,6.063h-3.848v-18.424h3.847a48.743,48.743,0,0,0,.069,5.4,2.374,2.374,0,0,0,1.447,1.707,52.886,52.886,0,0,0,5.9.081v-7.134h3.919Z" fill="gray"/>
    <path id="Trazado_1338" data-name="Trazado 1338" d="M1193.96,3165.015l-.974,2.484a30.507,30.507,0,0,0-5.513-.321c-3.169.389-4.657,3.337-4.124,7.586a5.335,5.335,0,0,0,5.832,4.9,2.156,2.156,0,0,0,1.349-1.522,46.683,46.683,0,0,0,.064-5.09h4.046v8.841c-5.973,2.344-11.587,1.332-14.264-2.562-2.357-3.43-2.088-10.034.527-12.915C1183.989,3163.013,1189.228,3162.377,1193.96,3165.015Z" fill="gray"/>
    <path id="Trazado_1339" data-name="Trazado 1339" d="M1214.234,3179.352v3.2H1201.17v-18.464h12.358v3.173c-2.322,0-4.542.062-6.756-.022-1.491-.056-1.818.667-1.823,1.973-.005,1.362.231,2.244,1.9,2.148,1.813-.1,3.635-.024,5.4-.024.8,3,.639,3.24-2.083,3.264-.832.008-1.666.049-2.493-.008-1.677-.116-2.776.047-2.781,2.3-.005,2.31,1.032,2.579,2.883,2.477C1209.833,3179.265,1211.9,3179.352,1214.234,3179.352Z" fill="gray"/>
    <path id="Trazado_1340" data-name="Trazado 1340" d="M1035.442,3150.508c3.595,1.825,6.768,3.41,9.907,5.061a1.625,1.625,0,0,1,.79,1.135c.056,4.295.035,8.591.035,13.4-3.64-2.124-6.8-3.92-9.893-5.827a2.23,2.23,0,0,1-.8-1.636C1035.408,3158.8,1035.442,3154.971,1035.442,3150.508Z" fill="gray"/>
    <path id="Trazado_1341" data-name="Trazado 1341" d="M1122.145,3164.209l-1.386,3.392a16.8,16.8,0,0,0-4.116-.609c-.968.088-1.861.994-2.788,1.535a9.358,9.358,0,0,0,1.871,2.306c1.246.794,2.754,1.162,4.074,1.858a5.251,5.251,0,0,1,2.977,6.245c-.559,2.56-2.352,3.6-4.847,3.918a15.2,15.2,0,0,1-8.734-1.148l.811-2.992c1.622.347,3.157.992,4.647.9,1.291-.08,3.2-.676,3.645-1.612.8-1.677-1.073-2.254-2.351-2.836-1.134-.516-2.283-1-3.41-1.532-2.294-1.085-3-2.993-2.664-5.377a4.475,4.475,0,0,1,3.773-4.144C1116.262,3163.778,1118.967,3164.138,1122.145,3164.209Z" fill="gray"/>
    <path id="Trazado_1342" data-name="Trazado 1342" d="M1007.493,3176.151c3.452,2.019,6.476,3.742,9.438,5.569a2.209,2.209,0,0,1,.884,1.58c.076,3.823.04,7.648.04,11.932-3.458-1.8-6.62-3.406-9.725-5.116a1.964,1.964,0,0,1-.61-1.481C1007.471,3184.644,1007.493,3180.652,1007.493,3176.151Z" fill="gray"/>
    <path id="Trazado_1343" data-name="Trazado 1343" d="M1135.916,3182.492h-4.084V3172c0-4.59,0-4.588-4.53-4.744-.324-.011-.647-.071-1.137-.128-.059-.487-.148-.953-.163-1.421-.015-.494.041-.99.074-1.649h15.248v3.084h-5.408Z" fill="gray"/>
    <path id="Trazado_1344" data-name="Trazado 1344" d="M1150.293,3182.5h-3.612V3164h3.612Z" fill="gray"/>
  </g>
</svg>
