<svg xmlns="http://www.w3.org/2000/svg" width="100" height="45" viewBox="0 0 128.481 45">
  <g id="Grupo_799" data-name="Grupo 799" transform="translate(-463.584 -3150.519)">
    <path id="Trazado_1345" data-name="Trazado 1345" d="M477.48,3163.1c2.544-1.839,5.257-2.784,8.435-1.944,2.95.779,4.578,2.217,4.7,5.261.27,6.881.275,13.772.374,20.659.026,1.723-.107,3.456.03,5.169.192,2.4-.944,3.051-3.209,3.1-2.347.049-2.721-1.053-2.707-2.99.06-8.29.025-16.58.024-24.87,0-.329.027-.659,0-.985-.17-1.778.5-4.073-2.364-4.346-2.055-.2-2.761,1.021-2.763,4.487-.007,8.536.024,17.073-.041,25.609-.008.955-.346,2.577-.872,2.727a8.168,8.168,0,0,1-4.135-.108c-.421-.111-.68-1.534-.685-2.359-.049-8.536-.029-17.073-.032-25.609a15.991,15.991,0,0,0-.059-2.213c-.2-1.375-.707-2.9-2.383-2.449-1.017.272-1.86,1.523-2.548,2.494-.316.446-.082,1.277-.082,1.934q0,12.8,0,25.609c0,2.608-2.232,4.005-4.669,2.817a2.257,2.257,0,0,1-.891-1.745c-.035-8.206.042-16.414.014-24.62-.01-2.876.479-5.448,3.38-6.838,3.02-1.446,6.053-1.71,9,.264C476.46,3162.472,476.954,3162.767,477.48,3163.1Z" fill="gray"/>
    <path id="Trazado_1346" data-name="Trazado 1346" d="M586.49,3194.143a19.282,19.282,0,0,1-2.833.983c-5.369,1-8.389-1.228-8.7-6.582a37.511,37.511,0,0,1,.346-7.108c.391-2.912,2.47-4.61,5.116-5.511,6.8-2.319,5.743-2.983,5.807-8.766.01-.9.016-1.8-.014-2.707a2.151,2.151,0,0,0-2.318-2.33c-1.528-.058-2.674.46-2.822,2.1-.193,2.12-.34,4.252-.342,6.378,0,1.941-1.08,2.3-2.726,2.269s-2.626-.524-2.745-2.381c-.459-7.154,5.194-11.462,12.066-9.068a6.322,6.322,0,0,1,4.634,6.1c.134,8.612.116,17.227.068,25.84-.009,1.749-1.536,2.454-3.686,1.827A8.967,8.967,0,0,1,586.49,3194.143Zm-.362-18.028c-3.382.123-5.144,1.222-5.26,3.638a107.964,107.964,0,0,0,.054,11.8c.051.835,1.529,2.268,2.258,2.214,1.028-.077,2.78-1.244,2.817-2.01C586.247,3186.552,586.128,3181.333,586.128,3176.115Z" fill="gray"/>
    <path id="Trazado_1347" data-name="Trazado 1347" d="M494.8,3178.32c0-2.953-.137-5.913.027-8.856.4-7.076,7.291-10.941,13.408-7.591a6.024,6.024,0,0,1,3.477,5.3,14.449,14.449,0,0,0,.055,1.474c.875,6.458-1.109,11.051-8.1,12.73a4.038,4.038,0,0,0-2.6,2.577,34.164,34.164,0,0,0-.065,8.29c.081.753,1.672,1.817,2.61,1.858.72.032,2.01-1.231,2.159-2.072a31.553,31.553,0,0,0,.324-6.608c-.082-2.293,1.279-2.444,3.032-2.5,1.77-.054,2.682.519,2.543,2.387-.085,1.143.05,2.3-.061,3.441a8.122,8.122,0,0,1-.637,2.6c-1.423,3.065-5.507,4.526-10.252,3.761-3.357-.541-5.344-2.591-5.543-6.24-.191-3.509-.041-7.036-.041-10.556Zm6.034,2.2c3.8-.857,4.977-1.747,5.026-3.984.086-4.007.023-8.017.023-12.026a2.157,2.157,0,0,0-2.3-2.356c-1.593-.107-2.691.671-2.717,2.216C500.777,3169.677,500.833,3174.987,500.833,3180.52Z" fill="gray"/>
    <path id="Trazado_1348" data-name="Trazado 1348" d="M546.728,3187.256c1.05-3.825-1.26-6.168-5.154-7.9-6.016-2.682-7.007-5.714-5.654-12.729.659-3.422,3.429-5.121,6.82-5.622,3.3-.489,6.768-.067,8.379,2.944,1.132,2.117.87,5.028.865,7.583,0,.332-2.2.922-3.364.884a2.562,2.562,0,0,1-1.787-1.712,42.064,42.064,0,0,1-.113-5.4c-.029-1.723-.512-3.138-2.628-3.157-2.133-.02-2.619,1.347-2.6,3.113.095,9.365-1.109,7.984,6.941,12.131,4.465,2.3,4.978,5.513,3.8,12.283-.671,3.876-3.9,5.71-8.482,5.624-6.507-.12-9.839-4.565-7.864-10.8.231-.729,1.944-1.391,2.955-1.371a3.067,3.067,0,0,1,2.377,1.7,36.374,36.374,0,0,1,.265,6.118c.032,1.793.369,3.383,2.662,3.357,2.313-.026,2.551-1.687,2.575-3.438C546.739,3189.877,546.728,3188.892,546.728,3187.256Z" fill="gray"/>
    <path id="Trazado_1349" data-name="Trazado 1349" d="M566.228,3187.387c1.041-3.877-1.1-6.164-4.911-7.973-6.026-2.86-7.448-6.321-5.951-12.67.874-3.707,4.623-6.1,9.268-5.927a7.141,7.141,0,0,1,7.177,6.248c.147.884.114,1.8.181,2.694.143,1.922-.591,2.925-2.71,2.867-1.93-.053-3.236-.434-3.031-2.777a40.729,40.729,0,0,0-.024-5.17,2.358,2.358,0,0,0-2.685-2.551,2.268,2.268,0,0,0-2.468,2.487,34.478,34.478,0,0,0,.089,6.873,6.669,6.669,0,0,0,2.538,3.57,39.178,39.178,0,0,0,5.234,2.84,5.759,5.759,0,0,1,3.185,5.212c.041,1.559.083,3.124,0,4.679-.246,4.435-2.973,7.162-7.451,7.346a19.47,19.47,0,0,1-4.7-.4,5.488,5.488,0,0,1-4.677-5.315c-.1-1.06.005-2.137-.07-3.2-.139-1.963.144-3.3,2.728-3.289,2.515.012,3.212,1.092,3.065,3.318-.108,1.636-.025,3.284-.007,4.927.019,1.774.632,3.091,2.709,3.08,1.989-.01,2.489-1.32,2.511-2.973C566.24,3190.138,566.228,3188.988,566.228,3187.387Z" fill="gray"/>
    <path id="Trazado_1350" data-name="Trazado 1350" d="M521.6,3173.05c0,6.408-.059,12.817.033,19.223.031,2.168-.627,3.125-2.982,3.074-2.181-.048-3.082-.688-3.067-2.985q.127-19.345.012-38.693c-.01-2.164.691-3.112,3.011-3.149,2.336-.038,3.055.865,3.025,3.06C521.543,3160.069,521.6,3166.56,521.6,3173.05Z" fill="gray"/>
    <path id="Trazado_1351" data-name="Trazado 1351" d="M531.755,3178.223c0,4.761-.108,9.527.049,14.283.081,2.443-1.082,2.8-3.165,2.845-2.306.055-2.79-.952-2.776-2.972q.105-14.407,0-28.815c-.014-2.007.677-2.829,2.749-2.784,1.907.041,3.214.324,3.169,2.666C531.687,3168.37,531.753,3173.3,531.755,3178.223Z" fill="gray"/>
    <path id="Trazado_1352" data-name="Trazado 1352" d="M528.737,3157.254a3.333,3.333,0,1,1,.029-6.661,3.331,3.331,0,1,1-.029,6.661Z" fill="gray"/>
  </g>
</svg>
