<svg xmlns="http://www.w3.org/2000/svg" width="97.082" height="120.427" viewBox="0 0 97.082 143.427">
  <g id="Grupo_377" data-name="Grupo 377" transform="translate(-2776.615 -1139.376)">
    <path id="Trazado_493" data-name="Trazado 493" d="M2873.071,1257.249l0-.025v-23.749c0-12.314-10.544-16.791-10.994-16.975l-.039-.015-24.9-9.644V1201a19.522,19.522,0,0,0,7.386-12.838,9.018,9.018,0,0,0,5.3-2.16,8.842,8.842,0,0,0,.922-12.477v-7.715a25.813,25.813,0,1,0-51.626,0v7.917a8.365,8.365,0,0,0-2.148,5.575,8.829,8.829,0,0,0,3.072,6.7,9.011,9.011,0,0,0,5.293,2.159,19.309,19.309,0,0,0,7.808,13.146v5.532l-24.874,9.643-.039.016c-.449.184-10.994,4.66-10.994,16.975v43.39a5.322,5.322,0,0,0,5.316,5.315h85.207a5.322,5.322,0,0,0,5.316-5.315v-19.583Zm-31.427-44.2-6.123,12.272c-.152-.108-3.4-2.414-7.364-5.23l7.563-9.336Zm-12.311,12.987-1.588,2.39h-5.194l-1.588-2.39,4.185-2.973Zm-12.025-18.526v-3.9a21.136,21.136,0,0,0,7.876,1.493,19.544,19.544,0,0,0,7.79-1.624v4.045l-7.826,9.66Zm31.419-28.21a4.666,4.666,0,0,1-1.622,3.542,4.838,4.838,0,0,1-2.405,1.106v-9.3A4.712,4.712,0,0,1,2848.727,1179.3Zm-43.565,4.648a4.705,4.705,0,0,1-4.026-4.648,4.945,4.945,0,0,1,4.026-4.543Zm.113-13.435a10.351,10.351,0,0,0-1.991.448v-5.153a21.647,21.647,0,1,1,43.294,0v5.01a9.225,9.225,0,0,0-1.878-.363c0-2.01.018-1.622-6.556-8.69a3.705,3.705,0,0,0-4.731-.577,40.156,40.156,0,0,1-24.277,6.535A3.7,3.7,0,0,0,2805.275,1170.516Zm4.053,15.076v-13.679a44.5,44.5,0,0,0,26.032-7.022c3.015,3.238,4.648,4.936,5.175,5.582v15.118a15.606,15.606,0,0,1-31.207,0Zm5.237,25.17,7.566,9.338-7.356,5.224-6.123-12.272Zm-12.16,67.254h-4.49V1237a2.083,2.083,0,0,0-4.165,0v41.017h-11.2a1.151,1.151,0,0,1-1.15-1.15v-43.391a14.428,14.428,0,0,1,8.4-13.116l14.95-5.8,6.568,13.164a3.647,3.647,0,0,0,3.264,2.019,4.715,4.715,0,0,0,2.982-1.293l1.678,2.526-6.227,36.786c0,.021-.006.042-.009.063a3.734,3.734,0,0,0,.9,3l6.538,7.193Zm14.76-9.8,6.029-35.619h3.908l6.028,35.619-7.982,8.781Zm51.744,8.652a1.151,1.151,0,0,1-1.15,1.149h-11.2V1237a2.083,2.083,0,0,0-4.166,0v41.017h-22.546l6.539-7.193a3.733,3.733,0,0,0,.9-3c0-.021-.006-.042-.01-.063l-6.226-36.786,1.678-2.526a4.719,4.719,0,0,0,2.982,1.293,3.65,3.65,0,0,0,3.264-2.018h0l6.568-13.163,14.961,5.794a14.434,14.434,0,0,1,8.4,13.118v23.749l0,.033,0,.026Z" fill="#fff" stroke="#e13a18" stroke-miterlimit="10" stroke-width="1.243"/>
  </g>
</svg>
