<svg xmlns="http://www.w3.org/2000/svg" xmlns:xlink="http://www.w3.org/1999/xlink" viewBox="0 0 412.97 331.24"><defs><style>.cls-1,.cls-10,.cls-21,.cls-5,.cls-7,.cls-8,.cls-9{fill:none;}.cls-2{isolation:isolate;}.cls-3{clip-path:url(#clip-path);}.cls-4{fill:#e6e6e6;}.cls-10,.cls-5,.cls-7,.cls-8,.cls-9{stroke:gray;}.cls-10,.cls-21,.cls-5,.cls-7,.cls-8,.cls-9{stroke-linecap:round;}.cls-21,.cls-5,.cls-8{stroke-linejoin:round;}.cls-5{stroke-width:0.83px;}.cls-20,.cls-6{fill:#d4d4d4;}.cls-6{opacity:0.1;}.cls-12,.cls-13,.cls-15,.cls-16,.cls-19,.cls-6{mix-blend-mode:multiply;}.cls-10,.cls-7,.cls-9{stroke-miterlimit:10;stroke-width:1.82px;}.cls-7{stroke-dasharray:2.73 4.29;}.cls-8{stroke-width:0.86px;}.cls-10{stroke-dasharray:2.74 4.3;}.cls-11,.cls-13{fill:#e13a18;}.cls-14{fill:#ebebeb;}.cls-15{fill:#f0f0f0;}.cls-16{fill:#e63b18;}.cls-17{fill:#fff;}.cls-18{fill:#b02e13;}.cls-19{fill:#f2f2f2;opacity:0.8;}.cls-21{stroke:#d4d4d4;stroke-width:0.61px;}</style><clipPath id="clip-path" transform="translate(0 25.85)"><path class="cls-1" d="M355.52,135.91A135.26,135.26,0,1,1,220.27.65,135.25,135.25,0,0,1,355.52,135.91Z"/></clipPath></defs><title>world</title><g class="cls-2"><g id="Capa_2" data-name="Capa 2"><g id="Layer_1" data-name="Layer 1"><g class="cls-3"><path class="cls-4" d="M376.91,2.73c-12.63-4.07-20.7,7.37-33.38,30.19-10.16,18.28,22.06,2.32,22.35,13.64.13,5.27-3.78,12.19-19.74,11-4.19-.31-14.41,6.08-18,11.9-2.4,3.9,2,7.64-1.09,8.58-15.38,4.64-11.32,18.71-.94,17,6-1,14.72-10.83,25-10.45,14.81.56,31.4,9.2,32.22,16.84,2.11,19.46-58.92-22.93-74.58,15.67-6.56,16.17,2.37,33.84,25.53,31.93,24.53-2,8.75,59.53,27,63" transform="translate(0 25.85)"/><path class="cls-4" d="M250.65-21.21c3.26-2.73,44-9.31,58,.79a52.3,52.3,0,0,1-25.91,45.07c-7.47,4.44-13.57,31.54-26.55,3C247.56,8.64,247.38-18.48,250.65-21.21Z" transform="translate(0 25.85)"/><path class="cls-4" d="M101.24-.39c4.19-.8,15.29,5.74,25.8,6.31,10.81.6,21-4.73,25.14-2.17C170,14.85,196,7.64,205.52,8.16s14.61,17,5.66,23.89-18.77,9.74-11.32,17.63,14.89,12.63,17.53,9.46,8.09-30.56,23.28-17.52c16.22,13.94,20.11,28.23,14.7,33.31C240.94,88.45,216.49,91,216,99.42s3.31,15.4.15,15.93-6.06-3.43-8.17-6.33-9.43-5.71-14.51-5.46c-3.81.18-12.79,2.94-10.7,11.5,1,4,12,8.09,19.52,8.2,5.22.07,13.42,11.94,16.33,17.77,1.26,2.53.14,3.49-.88,4.1-2.59,1.55-8.22-9.11-18-11.56-12.49-3.13-18.09-7.79-24.39-9.37s-9.5-5.77-15.82-16.83S141.06,94,135.71,87.63c-15.32-18.29-10.77-29.09-13.93-35.41s-21.48-5.66-28.45-10.6S87.75,4.74,101.24-.39Z" transform="translate(0 25.85)"/><path class="cls-4" d="M228.79,135.84s15.81,1.58,23.71,8.43,9,9.48,21.07,12.11S291,165.86,283.06,179s-22.13,34.24-29,40.57-15.28,11.58-18.44,22.12-4.21,16.85,2.64,21.07c0,0-3.69,9-12.12-2.63s-1.58-25.29,0-33.19,5.8-31.61,3.16-37.4-14.75-9.49-17.91-21.6,2.37-35.69,17.38-32.13Z" transform="translate(0 25.85)"/></g><path class="cls-5" d="M355.52,135.67A135.26,135.26,0,1,1,220.27.42,135.25,135.25,0,0,1,355.52,135.67Z" transform="translate(0 25.85)"/><path class="cls-6" d="M277,18.26a165.21,165.21,0,0,1,0,233.63,168.66,168.66,0,0,1-15.86,14A136,136,0,0,0,266.57,8.69Q271.94,13.22,277,18.26Z" transform="translate(0 25.85)"/><path class="cls-7" d="M96,197c-8.1-17.79,31.32-26.85,58.71-8.21,43.29,29.46,29.92,91.31,79.78,91.31,36.5,0,28.77-68.65,28.77-68.65" transform="translate(0 25.85)"/><path class="cls-8" d="M118.42,102.39a14.19,14.19,0,0,0-14.18-14.18h-1.59a16.61,16.61,0,0,0-19.48-8.83,18.93,18.93,0,0,0-33.42-.06A18.92,18.92,0,0,0,26.26,97.66,33.9,33.9,0,0,0,27.75,105l-27.32.21" transform="translate(0 25.85)"/><path class="cls-8" d="M293,34.42a7,7,0,0,1,7-7h.79a8.15,8.15,0,0,1,9.59-4.35,9.33,9.33,0,0,1,16.48,0,9.45,9.45,0,0,1,2.26-.28,9.33,9.33,0,0,1,9.31,9.32,16.85,16.85,0,0,1-.73,3.62l13.46.1" transform="translate(0 25.85)"/><path class="cls-8" d="M314.14,222.45a20.91,20.91,0,0,1-.91-4.51,11.61,11.61,0,0,1,14.4-11.25,11.61,11.61,0,0,1,20.5,0,10.36,10.36,0,0,1,2.78-.38,10.19,10.19,0,0,1,9.17,5.8h1a8.7,8.7,0,0,1,8.69,8.69h23.33" transform="translate(0 25.85)"/><path class="cls-9" d="M126.12,62.34l-1.28.47" transform="translate(0 25.85)"/><path class="cls-10" d="M120.83,64.36C97.06,73.89,2.08,117,23.31,190.66c16.09,55.79,98.71,57,116.8,56.59" transform="translate(0 25.85)"/><path class="cls-9" d="M142.25,247.18l1.36-.06" transform="translate(0 25.85)"/><path class="cls-7" d="M280.5,163.35S412.35,135.44,412.06,89c-.31-49.42-87.52-39.47-87.52-39.47" transform="translate(0 25.85)"/><path class="cls-7" d="M325.3,78.93s-35.07-11.64-55.1-1.62c-11.46,5.73-18.66,39.18-55.1,51.59" transform="translate(0 25.85)"/><path class="cls-11" d="M5.58,158.78a2.15,2.15,0,0,1,1.68-1.28l9-1.89L36.4,117.55S41,109.48,45.73,112s2.65,8.15,1.49,10.34l-23.46,44.4a1.64,1.64,0,0,1-1.56.77S4.82,164.21,3.89,164a.7.7,0,0,1-.52-1l2.21-4.18" transform="translate(0 25.85)"/><path class="cls-11" d="M41.4,130.4l4.37,24.31a3.24,3.24,0,0,1-.44,2.34c-.28.52-3.47,6.57-3.47,6.57a1,1,0,0,1-1.79-.22l-6.85-17.52Z" transform="translate(0 25.85)"/><path class="cls-11" d="M37.43,125,14.89,135.12a3.27,3.27,0,0,0-1.69,1.68l-3.47,6.57a1,1,0,0,0,1.18,1.36l18.34-4.22Z" transform="translate(0 25.85)"/><g class="cls-12"><path class="cls-11" d="M45.5,153.42,42,160a1,1,0,0,1-1.79-.22l-6.11-15.63L23.34,164.57a1.66,1.66,0,0,1-1.56.78s-15-2.84-17.86-3.41l-.55,1a.7.7,0,0,0,.52,1c.93.21,18.31,3.5,18.31,3.5a1.64,1.64,0,0,0,1.56-.77l10.12-19.16,6.19,15.83a1,1,0,0,0,1.79.22s3.19-6.05,3.47-6.57a3.24,3.24,0,0,0,.44-2.34c0-.1-.1-.58-.24-1.35Z" transform="translate(0 25.85)"/><path class="cls-11" d="M10.92,144.73l12.66-2.9,1.21-2.28-14.71,3.37H10l-.23.44C9.26,144.27,10.18,144.92,10.92,144.73Z" transform="translate(0 25.85)"/><path class="cls-11" d="M46.8,120.17c-.32.59-2.81,5.32-5.4,10.23.11.64.25,1.39.39,2.21,2.61-4.93,5.12-9.69,5.43-10.28.84-1.58,2.15-5,1-7.65A12.21,12.21,0,0,1,46.8,120.17Z" transform="translate(0 25.85)"/></g><path class="cls-11" d="M344.61,136.56a1.35,1.35,0,0,0-1.09.72c-.43.74-2.9,4.92-2.9,4.92l-26.32,4.21s-5.64,1.07-5.11,4.35,4.25,3.18,5.76,2.94l30.7-4.9a1,1,0,0,0,.76-.76s1.54-10.85,1.6-11.43a.43.43,0,0,0-.51-.51l-2.89.46" transform="translate(0 25.85)"/><path class="cls-11" d="M320.84,151.89l13.38,7.41a2,2,0,0,0,1.46.21l4.54-.73a.6.6,0,0,0,.23-1.09l-8.91-7.51Z" transform="translate(0 25.85)"/><path class="cls-11" d="M318.49,148.5l10.4-11.2a2,2,0,0,1,1.32-.66l4.55-.72a.6.6,0,0,1,.55,1l-6.12,9.91Z" transform="translate(0 25.85)"/><g class="cls-12"><path class="cls-11" d="M333.52,158.88l4.54-.72a.6.6,0,0,0,.24-1.09l-7.95-6.7,14.12-2.25a1,1,0,0,0,.76-.76s1.33-9.34,1.56-11.15l.71-.11a.43.43,0,0,1,.51.51c-.06.58-1.6,11.43-1.6,11.43a1,1,0,0,1-.76.76l-13.24,2.11,8,6.78a.6.6,0,0,1-.23,1.09l-4.54.73a2,2,0,0,1-1.46-.21l-.74-.41Z" transform="translate(0 25.85)"/><path class="cls-11" d="M335.31,136.88l-4.22,6.85-1.57.25,4.9-7.95,0-.06.31-.05A.6.6,0,0,1,335.31,136.88Z" transform="translate(0 25.85)"/><path class="cls-11" d="M313.77,153l7.07-1.13,1.22.68L315,153.7c-1.09.17-3.33.27-4.69-.92A7.42,7.42,0,0,0,313.77,153Z" transform="translate(0 25.85)"/></g><rect class="cls-11" x="271.88" y="63.94" width="4.65" height="5.19" rx="0.48" transform="translate(14.32 202.26) rotate(-36.56)"/><path class="cls-13" d="M274.37,68.6a.49.49,0,0,1-.68-.1l-2.3-3.11-.21.15a.49.49,0,0,0-.11.68l2.82,3.8a.49.49,0,0,0,.68.1l3-2.19a.49.49,0,0,0,.1-.68l-.51-.69Z" transform="translate(0 25.85)"/><rect class="cls-11" x="266.02" y="63.37" width="4.65" height="9.85" rx="0.48" transform="translate(12.11 199.11) rotate(-36.56)"/><path class="cls-13" d="M269.69,72a.49.49,0,0,1-.68-.1l-4.87-6.57-.21.16a.49.49,0,0,0-.1.68l5.38,7.25a.48.48,0,0,0,.68.1l2.95-2.19a.49.49,0,0,0,.11-.68l-.51-.69Z" transform="translate(0 25.85)"/><rect class="cls-11" x="250.21" y="76.24" width="9.31" height="7.8" rx="0.74" transform="translate(2.41 193.41) rotate(-36.56)"/><path class="cls-13" d="M253.86,83.63a.69.69,0,0,1-1-.15l-3.23-4.34-.3.22a.7.7,0,0,0-.14,1l3.95,5.33a.71.71,0,0,0,1,.15l6.35-4.72a.7.7,0,0,0,.15-1l-.74-1Z" transform="translate(0 25.85)"/><path class="cls-11" d="M257.23,92.86a1.14,1.14,0,0,0,1.42.1l20.91-15.51a2.14,2.14,0,0,0,.77-1.49l.16-10.25c0-.51-.32-.68-.73-.38L251.67,86.16a.76.76,0,0,0-.08,1.2Z" transform="translate(0 25.85)"/><path class="cls-13" d="M258.81,91.06a1.24,1.24,0,0,1-1.55-.11l-5.21-5.08-.36.28a.76.76,0,0,0-.09,1.2l5.64,5.5a1.15,1.15,0,0,0,1.42.1l20.92-15.51a2.17,2.17,0,0,0,.76-1.49v-.87Z" transform="translate(0 25.85)"/><path class="cls-14" d="M256.13,92.54a3.75,3.75,0,0,1-1.39,2.06,3.81,3.81,0,0,1-1.85.71l1.69,2.28a3.75,3.75,0,0,0,3.24-2.77A3.73,3.73,0,0,0,261.58,92,3.72,3.72,0,0,0,264,91.3a3.76,3.76,0,0,0,1.39-2,3.76,3.76,0,0,0,3.76-2.79,3.73,3.73,0,0,0,3.76-2.79,3.73,3.73,0,0,0,2.37-.73,3.81,3.81,0,0,0,1.39-2,3.7,3.7,0,0,0,2.36-.74,3.76,3.76,0,0,0,1.39-2.05,3.71,3.71,0,0,0,2.37-.74A3.79,3.79,0,0,0,284,75.8l-1.69-2.28a3.8,3.8,0,0,1-1.23,1.57,3.75,3.75,0,0,1-2.36.73,3.65,3.65,0,0,1-1.4,2.05,3.7,3.7,0,0,1-2.36.74,3.76,3.76,0,0,1-3.76,2.79,3.74,3.74,0,0,1-3.76,2.78,3.69,3.69,0,0,1-1.39,2,3.73,3.73,0,0,1-2.37.74,3.76,3.76,0,0,1-3.76,2.79,3.76,3.76,0,0,1-1.39,2,3.7,3.7,0,0,1-2.37.73Z" transform="translate(0 25.85)"/><rect class="cls-11" x="132.95" y="163.59" width="8.12" height="7.26" rx="0.75" transform="translate(-65.96 267.47) rotate(-70.8)"/><path class="cls-13" d="M137.71,170.38a.78.78,0,0,0,1-.47l2-5.71.38.13a.76.76,0,0,1,.47,1l-2.43,7a.76.76,0,0,1-1,.47l-5.43-1.89a.76.76,0,0,1-.46-1l.44-1.26Z" transform="translate(0 25.85)"/><rect class="cls-11" x="138.87" y="163.49" width="15.38" height="7.26" rx="0.75" transform="translate(-59.45 276.42) rotate(-70.8)"/><path class="cls-13" d="M146.26,173.19a.75.75,0,0,0,1-.46l4.2-12.07.39.14a.76.76,0,0,1,.47,1l-4.64,13.32a.76.76,0,0,1-1,.47l-5.43-1.89a.78.78,0,0,1-.47-1l.44-1.26Z" transform="translate(0 25.85)"/><rect class="cls-11" x="166.1" y="171.22" width="12.18" height="14.54" rx="1.15" transform="translate(-53 308.26) rotate(-70.8)"/><path class="cls-13" d="M175.3,183.23a1.09,1.09,0,0,0,1.39-.67l2.78-8,.56.19a1.1,1.1,0,0,1,.67,1.39l-3.41,9.8a1.11,1.11,0,0,1-1.39.67l-11.67-4.07a1.09,1.09,0,0,1-.67-1.39l.63-1.81Z" transform="translate(0 25.85)"/><path class="cls-11" d="M174.58,198.57a1.75,1.75,0,0,1-2.06.8L134.09,186a3.34,3.34,0,0,1-1.83-1.86l-5-15.21c-.25-.76.17-1.16.92-.9l51.59,18a1.2,1.2,0,0,1,.68,1.76Z" transform="translate(0 25.85)"/><path class="cls-13" d="M171.39,196.62a1.93,1.93,0,0,0,2.26-.88l5.4-10,.67.23a1.21,1.21,0,0,1,.69,1.76l-5.85,10.83a1.75,1.75,0,0,1-2.06.8L134.07,186a3.34,3.34,0,0,1-1.83-1.86l-.43-1.29Z" transform="translate(0 25.85)"/><path class="cls-14" d="M176.07,197.59a5.84,5.84,0,0,1-3.87,0,5.76,5.76,0,0,1-3-2.41,5.8,5.8,0,0,1-3.88,0,5.89,5.89,0,0,1-3-2.41,5.9,5.9,0,0,1-3.87,0,5.83,5.83,0,0,1-3-2.42,5.87,5.87,0,0,1-6.91-2.4,5.83,5.83,0,0,1-3.87,0,5.9,5.9,0,0,1-3-2.41,5.84,5.84,0,0,1-3.87,0,5.76,5.76,0,0,1-3-2.41,5.84,5.84,0,0,1-6.43-1.75l-1.46,4.18a5.88,5.88,0,0,0,6.43,1.76,5.85,5.85,0,0,0,6.9,2.4,5.86,5.86,0,0,0,6.91,2.4,5.83,5.83,0,0,0,3,2.42,5.9,5.9,0,0,0,3.87,0,5.86,5.86,0,0,0,6.91,2.4,5.76,5.76,0,0,0,3,2.41,5.84,5.84,0,0,0,3.87,0,5.94,5.94,0,0,0,3,2.41,5.86,5.86,0,0,0,3.88,0,5.86,5.86,0,0,0,6.12,2.62l1.46-4.19a5.84,5.84,0,0,1-6.13-2.61Z" transform="translate(0 25.85)"/><path class="cls-15" d="M264,204.79c.94-.1,2.09.72.88.8s-1,.1-2.66.18a17.43,17.43,0,0,1-2.76,0c-.63,0-.71-.08-1.34-.12s-2.07-.45-.74-.85S263.19,204.89,264,204.79Z" transform="translate(0 25.85)"/><path class="cls-11" d="M267,194.54c0,3.21-5.28,10.49-5.8,10.49s-5.8-7.28-5.8-10.49a5.8,5.8,0,0,1,11.6,0Z" transform="translate(0 25.85)"/><path class="cls-16" d="M257.59,190l6.24,11.67a13.74,13.74,0,0,1-2.68,3.4c-.53,0-5.81-7.28-5.81-10.49A5.8,5.8,0,0,1,257.59,190Z" transform="translate(0 25.85)"/><path class="cls-17" d="M261.12,197.41a3.38,3.38,0,1,0-3.34-3.4,3.37,3.37,0,0,0,3.34,3.4Z" transform="translate(0 25.85)"/><path class="cls-18" d="M259.25,195.89c0,.05-.13.54-.23.9a3.36,3.36,0,0,0,4.22,0c-.1-.36-.18-.85-.21-.9-.54-.88-1.37-.5-1.42-1.5a1,1,0,0,1-.47.2.94.94,0,0,1-.46-.2c-.06,1-.89.6-1.43,1.47Z" transform="translate(0 25.85)"/><circle class="cls-18" cx="261.14" cy="219.32" r="1.39"/><path class="cls-19" d="M261.6,197.38l-3-5.54a3.28,3.28,0,0,0-.82,2.17,3.37,3.37,0,0,0,3.34,3.4A3.87,3.87,0,0,0,261.6,197.38Z" transform="translate(0 25.85)"/><path class="cls-15" d="M208.22,130.31c1.47-.17,3.26,1.12,1.38,1.25s-1.55.16-4.16.28a31.11,31.11,0,0,1-4.32,0c-1-.07-1.12-.14-2.09-.2s-3.24-.71-1.16-1.32S206.91,130.46,208.22,130.31Z" transform="translate(0 25.85)"/><path class="cls-11" d="M212.79,114.29c0,5-8.25,16.39-9.08,16.39s-9.07-11.38-9.07-16.39a9.08,9.08,0,0,1,18.15,0Z" transform="translate(0 25.85)"/><path class="cls-16" d="M198.16,107.12l9.75,18.25c-1.95,3-3.83,5.31-4.2,5.31-.82,0-9.07-11.38-9.07-16.39A9.05,9.05,0,0,1,198.16,107.12Z" transform="translate(0 25.85)"/><path class="cls-17" d="M203.67,118.77a5.27,5.27,0,1,0-5.23-5.31,5.28,5.28,0,0,0,5.23,5.31Z" transform="translate(0 25.85)"/><path class="cls-18" d="M200.74,116.39c-.06.09-.2.84-.36,1.41a5.27,5.27,0,0,0,6.6.06c-.15-.58-.28-1.33-.33-1.42-.83-1.37-2.14-.79-2.22-2.34a1.66,1.66,0,0,1-.74.3,1.49,1.49,0,0,1-.7-.3c-.1,1.56-1.4.94-2.25,2.29Z" transform="translate(0 25.85)"/><path class="cls-18" d="M201.52,112.62a2.18,2.18,0,1,1,2.17,2.18A2.17,2.17,0,0,1,201.52,112.62Z" transform="translate(0 25.85)"/><path class="cls-19" d="M204.42,118.73l-4.69-8.67a5.26,5.26,0,0,0,3.94,8.71A4.71,4.71,0,0,0,204.42,118.73Z" transform="translate(0 25.85)"/><path class="cls-15" d="M339.93,81.05c1.47-.16,3.26,1.12,1.38,1.25s-1.55.16-4.16.28a28.06,28.06,0,0,1-4.32,0c-1-.07-1.11-.13-2.09-.2s-3.24-.7-1.16-1.32S338.62,81.2,339.93,81.05Z" transform="translate(0 25.85)"/><path class="cls-11" d="M344.5,65c0,5-8.25,16.39-9.07,16.39S326.36,70,326.36,65a9.07,9.07,0,0,1,18.14,0Z" transform="translate(0 25.85)"/><path class="cls-16" d="M329.87,57.87l9.75,18.25c-1.95,3-3.83,5.3-4.2,5.3-.82,0-9.07-11.38-9.07-16.39A9,9,0,0,1,329.87,57.87Z" transform="translate(0 25.85)"/><path class="cls-17" d="M335.38,69.52a5.28,5.28,0,1,0-5.23-5.32,5.29,5.29,0,0,0,5.23,5.32Z" transform="translate(0 25.85)"/><path class="cls-18" d="M332.45,67.14c-.06.08-.2.84-.35,1.41a5.24,5.24,0,0,0,6.59,0c-.15-.57-.28-1.33-.33-1.42-.83-1.37-2.14-.78-2.21-2.34a1.63,1.63,0,0,1-.74.31,1.49,1.49,0,0,1-.71-.3c-.1,1.55-1.4.93-2.25,2.29Z" transform="translate(0 25.85)"/><path class="cls-18" d="M333.23,63.37a2.18,2.18,0,1,1,2.18,2.17A2.18,2.18,0,0,1,333.23,63.37Z" transform="translate(0 25.85)"/><path class="cls-19" d="M336.13,69.47l-4.69-8.66a5.26,5.26,0,0,0,3.94,8.71A6.16,6.16,0,0,0,336.13,69.47Z" transform="translate(0 25.85)"/><path class="cls-15" d="M277.37,164.14c1.89-.21,4.19,1.44,1.77,1.61s-2,.2-5.34.36a36.64,36.64,0,0,1-5.55,0c-1.27-.09-1.43-.17-2.68-.26s-4.17-.9-1.5-1.69S275.68,164.33,277.37,164.14Z" transform="translate(0 25.85)"/><path class="cls-11" d="M283.24,143.56c0,6.43-10.6,21.06-11.66,21.06S259.93,150,259.93,143.56a11.66,11.66,0,0,1,23.31,0Z" transform="translate(0 25.85)"/><path class="cls-16" d="M264.45,134.35,277,157.8c-2.5,3.85-4.92,6.82-5.39,6.82-1.06,0-11.65-14.63-11.65-21.06A11.62,11.62,0,0,1,264.45,134.35Z" transform="translate(0 25.85)"/><path class="cls-17" d="M271.53,149.32a6.77,6.77,0,1,0-6.72-6.82,6.78,6.78,0,0,0,6.72,6.82Z" transform="translate(0 25.85)"/><path class="cls-18" d="M267.76,146.26c-.07.11-.26,1.08-.46,1.81a6.73,6.73,0,0,0,8.48.07c-.19-.73-.36-1.7-.43-1.82-1.07-1.75-2.74-1-2.84-3a2.09,2.09,0,0,1-.95.4,1.89,1.89,0,0,1-.91-.39c-.13,2-1.79,1.2-2.89,2.94Z" transform="translate(0 25.85)"/><path class="cls-18" d="M268.77,141.42a2.79,2.79,0,1,1,2.79,2.79A2.79,2.79,0,0,1,268.77,141.42Z" transform="translate(0 25.85)"/><path class="cls-19" d="M272.48,149.26l-6-11.13a6.76,6.76,0,0,0,5.07,11.19A6,6,0,0,0,272.48,149.26Z" transform="translate(0 25.85)"/><path class="cls-15" d="M146.21,59.26c2.5-.29,5.55,1.9,2.35,2.13s-2.64.27-7.08.47a49.14,49.14,0,0,1-7.36,0c-1.68-.11-1.9-.22-3.55-.34s-5.52-1.19-2-2.24S144,59.51,146.21,59.26Z" transform="translate(0 25.85)"/><path class="cls-11" d="M154,32c0,8.53-14.05,27.91-15.45,27.91S123.09,40.51,123.09,32A15.45,15.45,0,0,1,154,32Z" transform="translate(0 25.85)"/><path class="cls-16" d="M129.08,19.77l16.6,31.08c-3.32,5.1-6.52,9-7.15,9-1.39,0-15.44-19.38-15.44-27.91A15.43,15.43,0,0,1,129.08,19.77Z" transform="translate(0 25.85)"/><path class="cls-17" d="M138.47,39.62a9,9,0,1,0-8.91-9,9,9,0,0,0,8.91,9Z" transform="translate(0 25.85)"/><path class="cls-18" d="M133.47,35.56c-.09.15-.34,1.43-.6,2.4a8.93,8.93,0,0,0,11.23.09c-.25-1-.47-2.26-.57-2.41-1.41-2.33-3.64-1.34-3.76-4a2.8,2.8,0,0,1-1.27.53,2.49,2.49,0,0,1-1.2-.52c-.17,2.65-2.37,1.59-3.83,3.9Z" transform="translate(0 25.85)"/><path class="cls-18" d="M134.81,29.14a3.7,3.7,0,1,1,3.69,3.7A3.69,3.69,0,0,1,134.81,29.14Z" transform="translate(0 25.85)"/><path class="cls-19" d="M139.73,39.54l-8-14.76a9,9,0,0,0,6.72,14.84A10.39,10.39,0,0,0,139.73,39.54Z" transform="translate(0 25.85)"/><path class="cls-20" d="M155.43,286.4l17.07,9.7a.48.48,0,0,1,.13.67l-4.73,8.34a.49.49,0,0,1-.65.23l-17.07-9.7a.48.48,0,0,1-.13-.67l4.73-8.33A.49.49,0,0,1,155.43,286.4Z" transform="translate(0 25.85)"/><path class="cls-20" d="M149.19,287.64l4.41,2.5a.11.11,0,0,1,0,.16l-1,1.81a.11.11,0,0,1-.15.05l-4.41-2.51a.11.11,0,0,1-.05-.15l1-1.82A.13.13,0,0,1,149.19,287.64Z" transform="translate(0 25.85)"/><path class="cls-20" d="M149.57,274.16l-2.5,4.41a.12.12,0,0,1-.16,0l-1.81-1a.12.12,0,0,1,0-.16l2.51-4.41a.11.11,0,0,1,.15,0l1.82,1A.12.12,0,0,1,149.57,274.16Z" transform="translate(0 25.85)"/><path class="cls-20" d="M128.88,283.55l-17.08-9.7a.49.49,0,0,1-.12-.68l4.73-8.33a.49.49,0,0,1,.64-.24l17.08,9.7a.49.49,0,0,1,.13.68l-4.73,8.33A.5.5,0,0,1,128.88,283.55Z" transform="translate(0 25.85)"/><path class="cls-20" d="M135.12,282.31l-4.41-2.51a.1.1,0,0,1,0-.15l1-1.82a.11.11,0,0,1,.15,0l4.41,2.5a.12.12,0,0,1,.05.16l-1,1.82A.11.11,0,0,1,135.12,282.31Z" transform="translate(0 25.85)"/><path class="cls-20" d="M134.4,280.57a8.87,8.87,0,1,1,3.33,12.09A8.86,8.86,0,0,1,134.4,280.57Z" transform="translate(0 25.85)"/><path class="cls-20" d="M146.67,271.41a2.72,2.72,0,1,1,1,3.71A2.73,2.73,0,0,1,146.67,271.41Z" transform="translate(0 25.85)"/><path class="cls-21" d="M147.84,267a6.56,6.56,0,0,1,6.87,3.84" transform="translate(0 25.85)"/><path class="cls-21" d="M146.37,263.91A9.79,9.79,0,0,1,158,270.65" transform="translate(0 25.85)"/><path class="cls-21" d="M143.64,260.44a15.75,15.75,0,0,1,18.75,10.83" transform="translate(0 25.85)"/></g></g></g></svg>