<?xml version="1.0" encoding="utf-8"?>
<!-- Generator: Adobe Illustrator 22.0.0, SVG Export Plug-In . SVG Version: 6.00 Build 0)  -->
<svg version="1.1" id="Layer_1" xmlns="http://www.w3.org/2000/svg" xmlns:xlink="http://www.w3.org/1999/xlink" x="0px" y="0px"
	 viewBox="0 0 19.2 19.2" style="enable-background:new 0 0 19.2 19.2;" xml:space="preserve">
<style type="text/css">
	.st0{fill-rule:evenodd;clip-rule:evenodd;}
</style>
<title>Artboard 23</title>
<g>
	<path class="st0" d="M9.6,0C4.3,0,0,4.3,0,9.6c0,5.3,4.3,9.6,9.6,9.6c5.3,0,9.6-4.3,9.6-9.6C19.2,4.3,14.9,0,9.6,0z M7.8,15
		c-0.6,0-1-0.4-1-1c0-0.6,0.4-1,1-1c0.6,0,1,0.4,1,1C8.8,14.6,8.3,15,7.8,15z M12.2,15c-0.6,0-1-0.4-1-1c0-0.6,0.4-1,1-1
		c0.6,0,1,0.4,1,1C13.2,14.6,12.8,15,12.2,15z M14.2,6.9l-1,3.2c-0.1,0.3-0.4,0.5-0.7,0.5H7.7L8,11.4l4.4,0c0.3,0,0.5,0.2,0.5,0.5
		c0,0.3-0.2,0.5-0.5,0.5l-4.7,0c-0.1,0-0.2,0-0.2-0.1c-0.1-0.1-0.2-0.1-0.3-0.3L4.8,5.6l-1,0c-0.3,0-0.5-0.2-0.5-0.5
		c0-0.3,0.2-0.5,0.5-0.5l1.3,0c0.1,0,0.2,0,0.2,0.1C5.5,4.8,5.6,4.9,5.6,5l0.5,1.4h7.7C14.2,6.4,14.3,6.7,14.2,6.9z"/>
</g>
</svg>
