<?xml version="1.0" encoding="utf-8"?>
<!-- Generator: Adobe Illustrator 22.0.0, SVG Export Plug-In . SVG Version: 6.00 Build 0)  -->
<svg version="1.1" id="Layer_1" xmlns="http://www.w3.org/2000/svg" xmlns:xlink="http://www.w3.org/1999/xlink" x="0px" y="0px"
	 viewBox="0 0 19.2 19.2" style="enable-background:new 0 0 19.2 19.2;" xml:space="preserve">
<title>Artboard 23</title>
<g>
	<rect x="-6.7" y="10.4" transform="matrix(6.123234e-17 -1 1 6.123234e-17 -10.3657 12.481)" width="15.4" height="2.1"/>
	<rect x="-0.1" y="12.6" transform="matrix(6.123234e-17 -1 1 6.123234e-17 -8.4025 18.9996)" width="10.9" height="2.1"/>
	<rect x="3.2" y="11.7" transform="matrix(6.123234e-17 -1 1 6.123234e-17 -3.2152 22.294)" width="12.8" height="2.1"/>
	<rect x="10.8" y="15.1" transform="matrix(6.123234e-17 -1 1 6.123234e-17 -2.3632 29.9237)" width="6" height="2.1"/>
	<rect x="8.5" y="8.5" transform="matrix(6.123234e-17 -1 1 6.123234e-17 8.4212 27.6212)" width="19.1" height="2.1"/>
</g>
</svg>
