<?xml version="1.0" encoding="utf-8"?>
<!-- Generator: Adobe Illustrator 22.0.0, SVG Export Plug-In . SVG Version: 6.00 Build 0)  -->
<svg version="1.1" id="Layer_1" xmlns="http://www.w3.org/2000/svg" xmlns:xlink="http://www.w3.org/1999/xlink" x="0px" y="0px"
	 viewBox="0 0 19.2 19.2" style="enable-background:new 0 0 19.2 19.2;" xml:space="preserve">
<title>Artboard 23</title>
<g>
	<path d="M13.3,6.7c0-3.6-2.9-6.4-6.4-6.4S0.4,3.1,0.4,6.7c0,1.3,0.4,2.6,1.1,3.6L0,13.5L3.2,12c1,0.7,2.3,1.1,3.6,1.1
		C10.4,13.1,13.3,10.2,13.3,6.7L13.3,6.7z M13.3,6.7"/>
	<path d="M19.2,12.5c0-2.9-1.9-5.3-4.5-6.1c0,0.1,0,0.3,0,0.4c0,1-0.2,2-0.6,3c-0.4,0.9-0.9,1.7-1.6,2.4c-0.7,0.7-1.5,1.3-2.4,1.6
		c-0.9,0.4-1.9,0.6-3,0.6c-0.1,0-0.3,0-0.4,0c0.8,2.6,3.3,4.5,6.1,4.5c1.3,0,2.6-0.4,3.6-1.1l2.5,0.8l-0.8-2.5
		C18.8,15.1,19.2,13.9,19.2,12.5L19.2,12.5z M19.2,12.5"/>
</g>
</svg>
