<?xml version="1.0" encoding="utf-8"?>
<!-- Generator: Adobe Illustrator 22.0.0, SVG Export Plug-In . SVG Version: 6.00 Build 0)  -->
<svg version="1.1" id="Layer_1" xmlns="http://www.w3.org/2000/svg" xmlns:xlink="http://www.w3.org/1999/xlink" x="0px" y="0px"
	 viewBox="0 0 19.2 19.2" style="enable-background:new 0 0 19.2 19.2;" xml:space="preserve">
<title>Artboard 23</title>
<g id="Layer_1_1_">
	<path d="M0.5,16.1c-0.7,0.7-0.7,1.8,0,2.5c0.3,0.3,0.8,0.5,1.3,0.5c0.5,0,0.9-0.2,1.3-0.5L9,12.8l-2.6-2.5L0.5,16.1z"/>
	<polygon points="15.3,5.2 17.9,3.9 19.2,1.3 18,0 15.4,1.4 14,3.9 10.9,7.1 12.1,8.3 	"/>
	<path d="M15.9,12h-0.2c-0.4,0-0.8,0.1-1.2,0.2L7,4.8C7.1,4.4,7.2,4,7.2,3.6V3.4C7.1,1.4,5.4-0.1,3.5,0C3,0,2.5,0.1,2.1,0.4l2.4,2.4
		C4.6,2.9,4.7,3,4.7,3.2C5,3.8,4.7,4.5,4,4.7c-0.1,0-0.3,0.1-0.4,0.1c-0.1,0-0.3,0-0.4-0.1C3,4.7,2.9,4.6,2.8,4.4L0.4,2.1
		C-0.5,3.8,0.3,6,2,6.8C2.4,7,2.9,7.1,3.4,7.2h0.2c0.4,0,0.8,0,1.2-0.2l7.4,7.4c-0.1,0.4-0.2,0.8-0.2,1.2v0.2
		c0.1,1.9,1.7,3.4,3.6,3.3c0.5,0,1.1-0.1,1.5-0.4l-2.4-2.4c-0.1-0.1-0.2-0.3-0.3-0.4c-0.2-0.4-0.1-0.9,0.3-1.3
		c0.2-0.2,0.5-0.4,0.9-0.4c0.3,0,0.6,0.1,0.8,0.4l2.4,2.4c0.9-1.8,0.1-3.9-1.6-4.8C16.8,12.2,16.3,12,15.9,12L15.9,12z"/>
</g>
</svg>
