<?xml version="1.0" encoding="utf-8"?>
<!-- Generator: Adobe Illustrator 22.0.0, SVG Export Plug-In . SVG Version: 6.00 Build 0)  -->
<svg version="1.1" id="Layer_1" xmlns="http://www.w3.org/2000/svg" xmlns:xlink="http://www.w3.org/1999/xlink" x="0px" y="0px"
	 viewBox="0 0 19.2 19.2" style="enable-background:new 0 0 19.2 19.2;" xml:space="preserve">
<style type="text/css">
	.st0{fill-rule:evenodd;clip-rule:evenodd;}
</style>
<title>Artboard 23</title>
<g>
	<path class="st0" d="M19.2,9.6c0,5-3.9,9.1-8.8,9.6v-3.2h2.1c1.1,0,2.1-0.9,2.1-2.1v-0.5c0-1.1-0.9-2.1-2.1-2.1h-2.1V7.2H7.5
		C6.9,7.2,6.3,6.7,6.3,6V5.7c0-0.6,0.5-1.1,1.1-1.1h2.9V0C15.3,0.5,19.2,4.6,19.2,9.6z M11.8,14.9c0.6,0,1.1-0.5,1.1-1.1v-0.3
		c0-0.6-0.5-1.1-1.1-1.1h-3V8.2h-2c-1.1,0-2-0.9-2-2V5.6c0-1.1,0.9-2,2-2h2V0C3.9,0.5,0,4.6,0,9.6s3.9,9.1,8.8,9.6v-4.3H11.8z"/>
</g>
</svg>
