<?xml version="1.0" encoding="utf-8"?>
<!-- Generator: Adobe Illustrator 22.0.0, SVG Export Plug-In . SVG Version: 6.00 Build 0)  -->
<svg version="1.1" id="Layer_1" xmlns="http://www.w3.org/2000/svg" xmlns:xlink="http://www.w3.org/1999/xlink" x="0px" y="0px"
	 viewBox="0 0 19.2 19.2" style="enable-background:new 0 0 19.2 19.2;" xml:space="preserve">
<style type="text/css">
	.st0{fill-rule:evenodd;clip-rule:evenodd;}
</style>
<title>Artboard 23</title>
<g>
	<g>
		<path class="st0" d="M6.2,17.6c-0.8,0-1.4-0.6-1.4-1.4c0-0.8,0.6-1.4,1.4-1.4c0.8,0,1.4,0.6,1.4,1.4C7.6,17,7,17.6,6.2,17.6z"/>
		<ellipse transform="matrix(0.2298 -0.9732 0.9732 0.2298 -6.2554 24.5882)" class="st0" cx="12.4" cy="16.2" rx="1.4" ry="1.4"/>
		<path class="st0" d="M15.2,6.4l-1.4,4.4c-0.1,0.4-0.5,0.8-0.9,0.8H6.1l0.4,1.1l6.2,0c0.4,0,0.7,0.3,0.7,0.7c0,0.4-0.3,0.7-0.7,0.7
			l-6.6,0c-0.1,0-0.2,0-0.3-0.1c-0.2-0.1-0.3-0.2-0.4-0.4L2.1,4.6l-1.4,0C0.3,4.6,0,4.3,0,3.9c0-0.4,0.3-0.7,0.7-0.7l1.9,0
			c0.1,0,0.2,0,0.3,0.1C3,3.4,3.2,3.5,3.2,3.7L4,5.7h10.8C15.1,5.7,15.3,6,15.2,6.4z"/>
	</g>
	<g>
		<rect x="15.1" y="2.6" width="4.1" height="0.8"/>
		<rect x="16.7" y="1" width="0.8" height="4.1"/>
	</g>
</g>
</svg>
