<?xml version="1.0" encoding="utf-8"?>
<!-- Generator: Adobe Illustrator 22.0.0, SVG Export Plug-In . SVG Version: 6.00 Build 0)  -->
<svg version="1.1" id="Layer_1" xmlns="http://www.w3.org/2000/svg" xmlns:xlink="http://www.w3.org/1999/xlink" x="0px" y="0px"
	 viewBox="0 0 19.2 19.2" style="enable-background:new 0 0 19.2 19.2;" xml:space="preserve">
<style type="text/css">
	.st0{fill-rule:evenodd;clip-rule:evenodd;}
</style>
<title>Artboard 23</title>
<g>
	<g>
		<rect x="15.1" y="2.6" width="4.1" height="0.8"/>
		<rect x="16.7" y="1" width="0.8" height="4.1"/>
	</g>
</g>
<g>
	<path class="st0" d="M4.7,4.9c0-0.4,0.2-0.7,0.4-1c0.2-0.2,0.6-0.4,1.2-0.4h2.5c1,0,1.6,0.7,1.6,1.4v1c0,0.2-0.1,0.4-0.3,0.4
		c-0.2,0-0.3-0.2-0.3-0.4v-1c0-0.4-0.4-0.7-1-0.7H6.3c-0.6,0-0.9,0.4-0.9,0.7v1c0,0.2-0.1,0.4-0.3,0.4c-0.2,0-0.3-0.2-0.3-0.4V4.9z"
		/>
	<path class="st0" d="M15.2,16.5c0,0.4-0.3,0.6-0.7,0.6H0.7C0.3,17,0,16.9,0,16.5v-6l6.3,1.3v1.5c0,0.2,0.1,0.3,0.3,0.3h2.1
		C9,13.7,9,13.6,9,13.3v-1.5l6.2-1.4V16.5z"/>
	<path class="st0" d="M15.2,9.5L9,10.9v-0.3c0-0.2-0.1-0.3-0.3-0.3H6.6c-0.2,0-0.3,0.1-0.3,0.3v0.3L0,9.5V7.4C0,7,0.3,6.9,0.7,6.9
		h13.9c0.4,0,0.7,0.2,0.7,0.6V9.5z"/>
</g>
</svg>
