<?xml version="1.0" encoding="utf-8"?>
<!-- Generator: Adobe Illustrator 22.0.0, SVG Export Plug-In . SVG Version: 6.00 Build 0)  -->
<svg version="1.1" id="Layer_1" xmlns="http://www.w3.org/2000/svg" xmlns:xlink="http://www.w3.org/1999/xlink" x="0px" y="0px"
	 viewBox="0 0 19.2 19.2" style="enable-background:new 0 0 19.2 19.2;" xml:space="preserve">
<style type="text/css">
	.st0{fill-rule:evenodd;clip-rule:evenodd;}
</style>
<title>Artboard 23</title>
<g>
	<path class="st0" d="M9.6,0C4.3,0,0,4.3,0,9.6c0,5.3,4.3,9.6,9.6,9.6s9.6-4.3,9.6-9.6C19.2,4.3,14.9,0,9.6,0z M7.6,5.5
		c0-0.3,0.1-0.5,0.2-0.7C8,4.7,8.2,4.5,8.6,4.5h1.8c0.7,0,1.2,0.5,1.2,1v0.7c0,0.1-0.1,0.3-0.2,0.3c-0.1,0-0.2-0.1-0.2-0.3V5.5
		c0-0.3-0.3-0.5-0.7-0.5H8.6C8.1,5,8,5.3,8,5.5v0.7C8,6.3,8,6.5,7.8,6.5S7.6,6.3,7.6,6.2V5.5z M14.9,13.5c0,0.3-0.3,0.4-0.5,0.4H4.7
		c-0.3,0-0.4-0.1-0.4-0.4V9.4l4.2,0.9v1.1c0,0.1,0,0.2,0.1,0.2h1.5c0.1,0,0.3,0,0.3-0.2v-1.1l4.5-0.9V13.5z M14.9,8.7l-4.5,0.9V9.4
		c0-0.1-0.1-0.2-0.3-0.2H8.7c-0.1,0-0.2,0-0.2,0.2v0.2L4.3,8.7V7.3c0-0.3,0.1-0.4,0.4-0.4h9.7c0.3,0,0.5,0.1,0.5,0.4V8.7z"/>
</g>
</svg>
