<?xml version="1.0" encoding="utf-8"?>
<!-- Generator: Adobe Illustrator 22.0.0, SVG Export Plug-In . SVG Version: 6.00 Build 0)  -->
<svg version="1.1" id="Layer_1" xmlns="http://www.w3.org/2000/svg" xmlns:xlink="http://www.w3.org/1999/xlink" x="0px" y="0px"
	 viewBox="0 0 19.2 19.2" style="enable-background:new 0 0 19.2 19.2;" xml:space="preserve">
<title>Artboard 23</title>
<path d="M9.6,0C4.3,0,0,4.3,0,9.6c0,5.3,4.3,9.6,9.6,9.6s9.6-4.3,9.6-9.6C19.2,4.3,14.9,0,9.6,0z M15.7,4.9c0,0,0.9-0.6,1.4-0.8
	c1.1,1.4,1.7,3.2,1.8,5.1c-0.3-0.2-0.8-0.9-0.8-0.9l-0.7-0.6l-1.7-0.7V4.9z M9.6,0.2c0.3,0,0.6,0,0.9,0c0.2,0.4,0.4,1.1,0.4,1.1
	L8.8,4L7.2,6.5l7,3.4l-1.3,3.6l-2.3,2.9c0,0-1.8,1.8-1.7,2.6c-0.5,0-0.9-0.1-1.4-0.2c-0.2-0.8,0.2-4.4,0.2-4.4l-3.8-3.5l2.5-3L4,6.5
	c0,0-1.4-1.7-1.8-2.5C3.9,1.7,6.6,0.2,9.6,0.2z"/>
</svg>
