<?xml version="1.0" encoding="utf-8"?>
<!-- Generator: Adobe Illustrator 22.0.0, SVG Export Plug-In . SVG Version: 6.00 Build 0)  -->
<svg version="1.1" id="Layer_1" xmlns="http://www.w3.org/2000/svg" xmlns:xlink="http://www.w3.org/1999/xlink" x="0px" y="0px"
	 viewBox="0 0 19.2 19.2" style="enable-background:new 0 0 19.2 19.2;" xml:space="preserve">
<title>Artboard 23</title>
<g>
	<path d="M8.9,9.2C8.6,8.8,8,8.7,7.6,9.1C7.2,9.4,7.2,10,7.5,10.4l2.1,2.5c0.2,0.2,0.4,0.3,0.7,0.3c0,0,0,0,0.1,0
		c0.2,0,0.5-0.1,0.6-0.2l7.8-7.3c0.4-0.3,0.4-0.9,0-1.3c-0.3-0.4-0.9-0.4-1.3,0l-7.1,6.6L8.9,9.2z"/>
	<path d="M16.3,12.6c-0.2,0-0.5,0-0.7,0.1l-0.7-1.1c-0.2-0.3-0.6-0.4-0.8-0.2c-0.3,0.2-0.4,0.6-0.2,0.8l0.7,1.1
		c-0.3,0.3-0.5,0.7-0.7,1.2H5.1C5,14,4.8,13.6,4.4,13.3l4.3-7.6c0.2,0.1,0.5,0.1,0.8,0.1c0.2,0,0.4,0,0.6-0.1l1.2,2
		C11.4,8,11.7,8.1,12,7.9c0.3-0.2,0.4-0.6,0.2-0.8l-1.1-1.9C11.6,4.7,12,4,12,3.3c0-1.4-1.1-2.5-2.5-2.5c-1.4,0-2.5,1.1-2.5,2.5
		C6.9,4,7.2,4.6,7.6,5l-4.3,7.7c-0.2-0.1-0.4-0.1-0.6-0.1c-1.4,0-2.5,1.1-2.5,2.5s1.1,2.5,2.5,2.5c1.2,0,2.1-0.8,2.4-1.9h8.7
		c0.3,1.1,1.3,1.9,2.4,1.9c1.4,0,2.5-1.1,2.5-2.5S17.7,12.6,16.3,12.6z"/>
</g>
</svg>
