<svg xmlns="http://www.w3.org/2000/svg" viewBox="0 0 128.91 101.54"><defs><style>.cls-1{isolation:isolate;}.cls-2{opacity:0.72;}.cls-2,.cls-5{mix-blend-mode:multiply;}.cls-3{fill:#f5f5f5;}.cls-4{fill:#e13a18;}.cls-6{fill:#d4d4d4;}.cls-7{fill:#a91f21;}.cls-7,.cls-8{fill-rule:evenodd;}.cls-8{fill:#fff;}</style></defs><title>destocado</title><g class="cls-1"><g id="Capa_2" data-name="Capa 2"><g id="Layer_2" data-name="Layer 2"><g class="cls-2"><path class="cls-3" d="M128.91,101.54V0H0A237.12,237.12,0,0,1,128.91,101.54Z"/></g><path class="cls-4" d="M108.19,47.41l-5.42-3.28a.31.31,0,0,0-.32,0L97.1,47.41a.31.31,0,0,1-.47-.26V37a.31.31,0,0,1,.31-.31h11.41a.31.31,0,0,1,.31.31V47.15A.31.31,0,0,1,108.19,47.41Z"/><g class="cls-5"><polygon class="cls-6" points="102.64 11.76 105.77 10.59 108.15 12.94 111.48 13.13 112.7 16.24 115.67 17.78 115.51 21.11 117.6 23.73 116.1 26.71 116.94 29.94 114.36 32.06 113.82 35.36 110.6 36.24 108.76 39.03 105.46 38.53 102.64 40.33 99.83 38.53 96.53 39.03 94.69 36.24 91.47 35.36 90.93 32.06 88.34 29.94 89.19 26.71 87.69 23.73 89.78 21.11 89.62 17.78 92.59 16.24 93.81 13.13 97.14 12.94 99.52 10.59 102.64 11.76"/></g><polygon class="cls-4" points="102.64 10.67 105.77 9.49 108.15 11.84 111.48 12.04 112.7 15.14 115.67 16.68 115.51 20.02 117.6 22.63 116.1 25.61 116.94 28.84 114.36 30.96 113.82 34.26 110.6 35.15 108.76 37.93 105.46 37.43 102.64 39.23 99.83 37.43 96.53 37.93 94.69 35.15 91.47 34.26 90.93 30.96 88.34 28.84 89.19 25.61 87.69 22.63 89.78 20.02 89.62 16.68 92.59 15.14 93.81 12.04 97.14 11.84 99.52 9.49 102.64 10.67"/><path class="cls-7" d="M112.8,24.47a10.16,10.16,0,1,1-10.13-10.16A10.16,10.16,0,0,1,112.8,24.47Zm-8.84.6c0-.16,0-.32,0-.47a.15.15,0,0,1,0-.09,4.13,4.13,0,0,0,.45-.67l.31-.56c0-.08.09-.16.14-.24a2.25,2.25,0,0,0,.12-.21,4.3,4.3,0,0,0,.23-.69c0-.05,0-.09,0-.14a.34.34,0,0,0-.08-.27.52.52,0,0,0-.1-.11.14.14,0,0,1-.06-.12s0-.05,0-.08v-1a2.36,2.36,0,0,0-.08-.65,2,2,0,0,0-.88-1.18,2.5,2.5,0,0,0-.67-.28,3.26,3.26,0,0,0-.94-.08,2.69,2.69,0,0,0-.74.14,2,2,0,0,0-1.44,2c0,.34,0,.69,0,1v.12l-.15.15a.41.41,0,0,0-.09.34,5,5,0,0,0,.24.78l.1.18.16.26.28.5a4.41,4.41,0,0,0,.52.78v.52a.23.23,0,0,0-.07.07c-.44.36-.89.72-1.36,1a5.87,5.87,0,0,1-.88.5l-.88.42-.59.32a2.4,2.4,0,0,0-.26.18.33.33,0,0,0-.13.25c0,.25,0,.51-.08.76s-.08.64-.11.95a.22.22,0,0,0,0,.08h11.28l.07,0v-.1c0-.24-.06-.47-.08-.7l-.12-1a.26.26,0,0,0-.12-.23,1.12,1.12,0,0,0-.22-.16l-.49-.28-1-.49a5.61,5.61,0,0,1-.86-.49c-.48-.33-.94-.69-1.39-1.06Z"/><path class="cls-8" d="M104,25.07c0-.16,0-.32,0-.47a.15.15,0,0,1,0-.09,4.13,4.13,0,0,0,.45-.67l.31-.56c0-.08.09-.16.14-.24a2.25,2.25,0,0,0,.12-.21,4.3,4.3,0,0,0,.23-.69c0-.05,0-.09,0-.14a.34.34,0,0,0-.08-.27.52.52,0,0,0-.1-.11.14.14,0,0,1-.06-.12s0-.05,0-.08v-1a2.36,2.36,0,0,0-.08-.65,2,2,0,0,0-.88-1.18,2.5,2.5,0,0,0-.67-.28,3.26,3.26,0,0,0-.94-.08,2.69,2.69,0,0,0-.74.14,2,2,0,0,0-1.44,2c0,.34,0,.69,0,1v.12l-.15.15a.41.41,0,0,0-.09.34,5,5,0,0,0,.24.78l.1.18.16.26.28.5a4.41,4.41,0,0,0,.52.78v.52a.23.23,0,0,0-.07.07c-.44.36-.89.72-1.36,1a5.87,5.87,0,0,1-.88.5l-.88.42-.59.32a2.4,2.4,0,0,0-.26.18.33.33,0,0,0-.13.25c0,.25,0,.51-.08.76s-.08.64-.11.95a.22.22,0,0,0,0,.08h11.28l.07,0v-.1c0-.24-.06-.47-.08-.7l-.12-1a.26.26,0,0,0-.12-.23,1.12,1.12,0,0,0-.22-.16l-.49-.28-1-.49a5.61,5.61,0,0,1-.86-.49c-.48-.33-.94-.69-1.39-1.06Z"/></g></g></g></svg>