<svg xmlns="http://www.w3.org/2000/svg" viewBox="0 0 10.65 14"><defs><style>.cls-1{fill:#b3b3b3;}</style></defs><title>icono-u</title><g id="Capa_2" data-name="Capa 2"><g id="Layer_2" data-name="Layer 2"><path class="cls-1" d="M10.64,11.94c-.05-3.3-.48-4.23-3.77-4.83a2,2,0,0,1-1.54.59,2,2,0,0,1-1.55-.59C.52,7.7.07,8.62,0,11.83c0,.26,0,.28,0,.25v.34S.78,14,5.33,14s5.32-1.58,5.32-1.58v-.25s0,0,0-.23Z"/><path class="cls-1" d="M5.33,6.85c1.55,0,2.81-1.53,2.81-3.43S7.73,0,5.33,0,2.51,1.53,2.51,3.42,3.77,6.85,5.33,6.85Z"/></g></g></svg>