<svg xmlns="http://www.w3.org/2000/svg" viewBox="0 0 16.29 14.57"><defs><style>.cls-1{fill:#b3b3b3;}</style></defs><title>icono-g</title><g id="Capa_2" data-name="Capa 2"><g id="Layer_2" data-name="Layer 2"><path class="cls-1" d="M7.57,7.26a.81.81,0,0,0-1.13-.09.79.79,0,0,0-.09,1.12l1.79,2.14a.76.76,0,0,0,.56.28h.05a.78.78,0,0,0,.54-.21L16,4.18A.8.8,0,0,0,14.94,3L8.82,8.76Z"/><path class="cls-1" d="M13.92,10.23a2,2,0,0,0-.6.1l-.59-1a.54.54,0,1,0-.92.55l.58,1a2.17,2.17,0,0,0-.56,1H4.26a2.15,2.15,0,0,0-.6-1L7.35,4.22A2.08,2.08,0,0,0,8,4.33a2,2,0,0,0,.49-.06L9.51,6a.53.53,0,1,0,.92-.54l-1-1.66A2.17,2.17,0,1,0,5.84,2.17a2.15,2.15,0,0,0,.6,1.48L2.72,10.31a2.52,2.52,0,0,0-.55-.08,2.17,2.17,0,1,0,2.09,2.71h7.57a2.16,2.16,0,1,0,2.09-2.71Z"/></g></g></svg>