<svg xmlns="http://www.w3.org/2000/svg" viewBox="0 0 14.81 9.52"><defs><style>.cls-1{fill:#b3b3b3;}</style></defs><title>icono-e</title><g id="Capa_2" data-name="Capa 2"><g id="Layer_2" data-name="Layer 2"><path class="cls-1" d="M14.65,4.19a8.88,8.88,0,0,0-3.11-3,8,8,0,0,0-8.26,0,8.8,8.8,0,0,0-3.11,3A1.14,1.14,0,0,0,0,4.76a1.14,1.14,0,0,0,.17.57,8.71,8.71,0,0,0,3.11,3A8,8,0,0,0,7.41,9.52a8.09,8.09,0,0,0,4.13-1.14,8.82,8.82,0,0,0,3.11-3.05,1.1,1.1,0,0,0,0-1.14Zm-9-2.26a2.46,2.46,0,0,1,1.78-.74.38.38,0,0,1,.28.12.39.39,0,0,1,.11.28.41.41,0,0,1-.11.28A.37.37,0,0,1,7.41,2a1.65,1.65,0,0,0-1.22.51,1.62,1.62,0,0,0-.5,1.21A.36.36,0,0,1,5.57,4,.39.39,0,0,1,5,4a.36.36,0,0,1-.12-.28,2.42,2.42,0,0,1,.74-1.77ZM11,7.46a6.8,6.8,0,0,1-3.59,1,6.84,6.84,0,0,1-3.6-1,8.54,8.54,0,0,1-2.75-2.7A8.21,8.21,0,0,1,4.21,1.84,3.62,3.62,0,0,0,3.7,3.7,3.6,3.6,0,0,0,4.79,6.32,3.59,3.59,0,0,0,7.41,7.41,3.57,3.57,0,0,0,10,6.32,3.56,3.56,0,0,0,11.11,3.7a3.71,3.71,0,0,0-.5-1.86,8.11,8.11,0,0,1,3.14,2.92A8.54,8.54,0,0,1,11,7.46Z"/></g></g></svg>